<svg width="24" height="25" viewBox="0 0 24 25" fill="none" xmlns="http://www.w3.org/2000/svg">
<path d="M23.4059 5.38235C23.7294 5.38235 23.9941 5.11765 24 4.79412V1.09412C24 0.764706 23.7353 0.5 23.4059 0.5H19.7059C19.3824 0.5 19.1176 0.764706 19.1176 1.09412V2.38235H4.88235V1.09412C4.88235 0.770588 4.61765 0.505882 4.29412 0.5H0.594118C0.270588 0.5 0.00588235 0.764706 0 1.09412V4.79412C0 5.11765 0.264706 5.38235 0.594118 5.38235H1.88235V19.6176H0.594118C0.270588 19.6176 0.00588235 19.8824 0 20.2059V23.9059C0 24.2294 0.264706 24.4941 0.594118 24.5H4.29412C4.61765 24.5 4.88235 24.2353 4.88235 23.9059V22.6176H19.1176V23.9059C19.1176 24.2294 19.3824 24.4941 19.7059 24.5H23.4059C23.7294 24.5 23.9941 24.2353 24 23.9059V20.2059C24 19.8824 23.7353 19.6176 23.4059 19.6176H22.1176V5.38235H23.4059ZM1.17647 4.20588V1.67647H3.70588V4.20588H1.17647ZM3.70588 23.3235H1.17647V20.7941H3.70588V23.3235ZM19.1176 20.2059V21.4412H4.88235V20.2059C4.88235 19.8824 4.61765 19.6176 4.29412 19.6176H3.05882V5.38235H4.29412C4.61765 5.38235 4.88235 5.11765 4.88235 4.79412V3.55882H19.1176V4.79412C19.1176 5.11765 19.3824 5.38235 19.7059 5.38235H20.9412V19.6176H19.7059C19.3824 19.6176 19.1176 19.8824 19.1176 20.2059ZM22.8235 20.7941V23.3235H20.2941V20.7941H22.8235ZM20.2941 4.20588V1.67647H22.8235V4.20588H20.2941Z" fill="#111111" fill-opacity="0.7"/>
</svg>
