<svg width="24" height="25" viewBox="0 0 24 25" fill="none" xmlns="http://www.w3.org/2000/svg">
<g clip-path="url(#clip0_1088_1647)">
<path d="M22.4998 12.4554H1.49999C0.672978 12.4554 0 13.1284 0 13.9554C0 14.7825 0.672978 15.4554 1.49999 15.4554H22.4998C23.3268 15.4554 23.9998 14.7825 23.9998 13.9554C23.9998 13.1284 23.3268 12.4554 22.4998 12.4554ZM22.4998 14.4554H1.49999C1.22497 14.4554 0.999975 14.2314 0.999975 13.9554C0.999975 13.6794 1.22497 13.4554 1.49999 13.4554H22.4998C22.7748 13.4554 22.9998 13.6794 22.9998 13.9554C22.9998 14.2314 22.7748 14.4554 22.4998 14.4554Z" fill="#111111" fill-opacity="0.7"/>
<path d="M22.6373 14.4745C22.3663 14.3995 22.0943 14.5525 22.0193 14.8186L20.6413 19.6426C20.3363 20.7096 19.3474 21.4556 18.2374 21.4556H5.76245C4.65246 21.4556 3.66449 20.7095 3.35849 19.6426L1.98047 14.8185C1.90547 14.5525 1.63248 14.3995 1.36248 14.4745C1.09646 14.5505 0.943466 14.8265 1.0195 15.0925L2.39747 19.9165C2.82445 21.4115 4.20744 22.4555 5.76245 22.4555H18.2363C19.7913 22.4555 21.1753 21.4115 21.6023 19.9165L22.9803 15.0925C23.0563 14.8275 22.9033 14.5505 22.6373 14.4745Z" fill="#111111" fill-opacity="0.7"/>
<path d="M5.7627 19.4564C5.5407 19.4564 5.34369 19.3064 5.28172 19.0934L4.63274 16.8194C4.55774 16.5544 4.28273 16.3994 4.01475 16.4754C3.74976 16.5514 3.59573 16.8274 3.67176 17.0934L4.32074 19.3674C4.50276 20.0084 5.09675 20.4554 5.76274 20.4554C6.03874 20.4554 6.26276 20.2324 6.26276 19.9564C6.26271 19.6804 6.0387 19.4564 5.7627 19.4564Z" fill="#111111" fill-opacity="0.7"/>
<path d="M6.72359 21.5076C6.4766 21.3866 6.17759 21.4836 6.05258 21.7316L5.0526 23.7316C4.9296 23.9786 5.02959 24.2786 5.27662 24.4026C5.3496 24.4386 5.42563 24.4556 5.50063 24.4556C5.68363 24.4556 5.85964 24.3546 5.94763 24.1787L6.9476 22.1786C7.0706 21.9316 6.97057 21.6316 6.72359 21.5076Z" fill="#111111" fill-opacity="0.7"/>
<path d="M18.9476 23.7325L17.9476 21.7325C17.8236 21.4845 17.5236 21.3855 17.2766 21.5085C17.0296 21.6325 16.9296 21.9325 17.0526 22.1795L18.0526 24.1795C18.1405 24.3545 18.3166 24.4555 18.4996 24.4555C18.5746 24.4555 18.6505 24.4385 18.7236 24.4035C18.9706 24.2795 19.0706 23.9795 18.9476 23.7325Z" fill="#111111" fill-opacity="0.7"/>
<path d="M20.0842 0.544434C19.5742 0.544434 19.0942 0.743418 18.7332 1.10445L17.1462 2.69145C16.9513 2.88645 16.9513 3.20346 17.1462 3.39846C17.3412 3.59347 17.6583 3.59347 17.8533 3.39846L19.4402 1.81245C19.6112 1.64047 19.8402 1.54545 20.0892 1.54545C20.5912 1.54545 20.9992 1.95345 20.9992 2.45543V12.9554C20.9992 13.2314 21.2232 13.4555 21.4992 13.4555C21.7752 13.4555 21.9992 13.2314 22.0002 12.9545V2.45445C22.0002 1.40145 21.1442 0.544434 20.0842 0.544434Z" fill="#111111" fill-opacity="0.7"/>
<path d="M18.3544 3.19252L17.3545 2.19253C17.2395 2.07755 17.0805 2.02453 16.9195 2.05252L14.4195 2.46253C14.2355 2.49155 14.0845 2.62153 14.0255 2.79853C13.9666 2.97553 14.0115 3.17053 14.1416 3.30352L17.1415 6.39352C17.2355 6.49252 17.3665 6.54553 17.4995 6.54553C17.5465 6.54553 17.5945 6.53855 17.6425 6.52552C17.8205 6.47353 17.9555 6.32653 17.9915 6.14452L18.4915 3.64453C18.5245 3.48052 18.4725 3.3105 18.3544 3.19252ZM17.1955 5.0145L15.5245 3.29353L16.8275 3.08053L17.4565 3.70955L17.1955 5.0145Z" fill="#111111" fill-opacity="0.7"/>
<path d="M11.8532 6.60255C11.6582 6.40755 11.3412 6.40755 11.1462 6.60255L10.1462 7.60254C9.95125 7.79754 9.95125 8.11455 10.1462 8.30955C10.2443 8.40654 10.3722 8.45557 10.5002 8.45557C10.6283 8.45557 10.7562 8.40658 10.8533 8.30955L11.8532 7.30957C12.0482 7.11452 12.0482 6.79755 11.8532 6.60255Z" fill="#111111" fill-opacity="0.7"/>
<path d="M13.8532 8.60243C13.6582 8.40743 13.3412 8.40743 13.1462 8.60243L12.1462 9.60241C11.9513 9.79741 11.9513 10.1144 12.1462 10.3094C12.2443 10.4064 12.3722 10.4554 12.5002 10.4554C12.6283 10.4554 12.7562 10.4065 12.8533 10.3094L13.8532 9.30944C14.0482 9.11444 14.0482 8.79743 13.8532 8.60243Z" fill="#111111" fill-opacity="0.7"/>
<path d="M14.8532 5.60243C14.6582 5.40743 14.3412 5.40743 14.1462 5.60243L13.1462 6.60241C12.9513 6.79741 12.9513 7.11443 13.1462 7.30943C13.2443 7.40642 13.3722 7.45545 13.5002 7.45545C13.6283 7.45545 13.7562 7.40646 13.8533 7.30943L14.8532 6.30944C15.0482 6.11444 15.0482 5.79743 14.8532 5.60243Z" fill="#111111" fill-opacity="0.7"/>
</g>
<defs>
<clipPath id="clip0_1088_1647">
<rect width="24" height="24" fill="white" transform="translate(0 0.5)"/>
</clipPath>
</defs>
</svg>
