<svg width="30" height="28" viewBox="0 0 30 28" fill="none" xmlns="http://www.w3.org/2000/svg">
<path d="M4.33398 27.5V15L1.93398 16.8334L0.333984 14.7L4.33398 11.6334V7.50004H7.00065V9.60004L15.0007 3.50004L29.6673 14.7L28.0673 16.8L25.6673 15V27.5H4.33398ZM7.00065 24.8334H13.6673V19.5H16.334V24.8334H23.0007V12.9667L15.0007 6.86671L7.00065 12.9667V24.8334ZM4.33398 6.16671C4.33398 5.0556 4.72287 4.11115 5.50065 3.33337C6.27843 2.5556 7.22287 2.16671 8.33398 2.16671C8.71176 2.16671 9.02843 2.03893 9.28399 1.78337C9.53954 1.52782 9.66732 1.21115 9.66732 0.833374H12.334C12.334 1.94449 11.9451 2.88893 11.1673 3.66671C10.3895 4.44448 9.4451 4.83337 8.33398 4.83337C7.95621 4.83337 7.63954 4.96115 7.38398 5.21671C7.12843 5.47226 7.00065 5.78893 7.00065 6.16671H4.33398Z" fill="#4236C5"/>
</svg>
