<svg width="24" height="25" viewBox="0 0 24 25" fill="none" xmlns="http://www.w3.org/2000/svg">
<path d="M0 24.5V6.81579H8V4.28947L12 0.5L16 4.28947V11.8684H24V24.5H0ZM2.66667 21.9737H5.33333V19.4474H2.66667V21.9737ZM2.66667 16.9211H5.33333V14.3947H2.66667V16.9211ZM2.66667 11.8684H5.33333V9.3421H2.66667V11.8684ZM10.6667 21.9737H13.3333V19.4474H10.6667V21.9737ZM10.6667 16.9211H13.3333V14.3947H10.6667V16.9211ZM10.6667 11.8684H13.3333V9.3421H10.6667V11.8684ZM10.6667 6.81579H13.3333V4.28947H10.6667V6.81579ZM18.6667 21.9737H21.3333V19.4474H18.6667V21.9737ZM18.6667 16.9211H21.3333V14.3947H18.6667V16.9211Z" fill="#111111" fill-opacity="0.7"/>
</svg>
