<svg width="14" height="25" viewBox="0 0 14 25" fill="none" xmlns="http://www.w3.org/2000/svg">
<path d="M5.70091 24.5V21.6333C4.52313 21.3667 3.50647 20.8556 2.65091 20.1C1.79536 19.3444 1.16758 18.2778 0.767578 16.9L3.23424 15.9C3.56758 16.9667 4.06202 17.7778 4.71758 18.3333C5.37313 18.8889 6.23425 19.1667 7.30091 19.1667C8.21202 19.1667 8.98425 18.9611 9.61758 18.55C10.2509 18.1389 10.5676 17.5 10.5676 16.6333C10.5676 15.8556 10.3231 15.2389 9.83425 14.7833C9.34536 14.3278 8.21202 13.8111 6.43425 13.2333C4.52313 12.6333 3.21202 11.9167 2.50091 11.0833C1.7898 10.25 1.43424 9.23333 1.43424 8.03333C1.43424 6.58889 1.90091 5.46667 2.83424 4.66667C3.76758 3.86667 4.72313 3.41111 5.70091 3.3V0.5H8.36758V3.3C9.47869 3.47778 10.3954 3.88333 11.1176 4.51667C11.8398 5.15 12.3676 5.92222 12.7009 6.83333L10.2342 7.9C9.96758 7.18889 9.5898 6.65556 9.10091 6.3C8.61202 5.94444 7.94536 5.76667 7.10091 5.76667C6.12313 5.76667 5.37869 5.98333 4.86758 6.41667C4.35647 6.85 4.10091 7.38889 4.10091 8.03333C4.10091 8.76667 4.43424 9.34445 5.10091 9.76667C5.76758 10.1889 6.92313 10.6333 8.56758 11.1C10.1009 11.5444 11.262 12.25 12.0509 13.2167C12.8398 14.1833 13.2342 15.3 13.2342 16.5667C13.2342 18.1444 12.7676 19.3444 11.8342 20.1667C10.9009 20.9889 9.74536 21.5 8.36758 21.7V24.5H5.70091Z" fill="#4236C5"/>
</svg>
