<svg width="22" height="27" viewBox="0 0 22 27" fill="none" xmlns="http://www.w3.org/2000/svg">
<path d="M11.0007 13.5001C11.734 13.5001 12.3618 13.239 12.884 12.7167C13.4062 12.1945 13.6673 11.5667 13.6673 10.8334C13.6673 10.1001 13.4062 9.4723 12.884 8.95008C12.3618 8.42786 11.734 8.16675 11.0007 8.16675C10.2673 8.16675 9.63954 8.42786 9.11732 8.95008C8.5951 9.4723 8.33398 10.1001 8.33398 10.8334C8.33398 11.5667 8.5951 12.1945 9.11732 12.7167C9.63954 13.239 10.2673 13.5001 11.0007 13.5001ZM11.0007 23.3001C13.7118 20.8112 15.7229 18.5501 17.034 16.5167C18.3451 14.4834 19.0007 12.6779 19.0007 11.1001C19.0007 8.67786 18.2284 6.69453 16.684 5.15008C15.1395 3.60564 13.2451 2.83341 11.0007 2.83341C8.75621 2.83341 6.86176 3.60564 5.31732 5.15008C3.77287 6.69453 3.00065 8.67786 3.00065 11.1001C3.00065 12.6779 3.65621 14.4834 4.96732 16.5167C6.27843 18.5501 8.28954 20.8112 11.0007 23.3001ZM11.0007 26.8334C7.42287 23.789 4.75065 20.9612 2.98398 18.3501C1.21732 15.739 0.333984 13.3223 0.333984 11.1001C0.333984 7.76675 1.40621 5.11119 3.55065 3.13341C5.6951 1.15564 8.17843 0.166748 11.0007 0.166748C13.8229 0.166748 16.3062 1.15564 18.4507 3.13341C20.5951 5.11119 21.6673 7.76675 21.6673 11.1001C21.6673 13.3223 20.784 15.739 19.0173 18.3501C17.2507 20.9612 14.5784 23.789 11.0007 26.8334Z" fill="#4236C5"/>
</svg>
