<svg width="24" height="12" viewBox="0 0 24 12" fill="none" xmlns="http://www.w3.org/2000/svg">
<path d="M5.625 9.96252C5.93566 9.96252 6.1875 9.71068 6.1875 9.40002C6.1875 9.08936 5.93566 8.83752 5.625 8.83752C5.31434 8.83752 5.0625 9.08936 5.0625 9.40002C5.0625 9.71068 5.31434 9.96252 5.625 9.96252Z" fill="#111111" fill-opacity="0.7"/>
<path d="M19.125 9.96252C19.4357 9.96252 19.6875 9.71068 19.6875 9.40002C19.6875 9.08936 19.4357 8.83752 19.125 8.83752C18.8143 8.83752 18.5625 9.08936 18.5625 9.40002C18.5625 9.71068 18.8143 9.96252 19.125 9.96252Z" fill="#111111" fill-opacity="0.7"/>
<path d="M22.3781 4.9486L18.2377 4.32047L14.2725 1.05722C13.9031 0.754031 13.4402 0.588069 12.9623 0.587531H7.47094C7.16148 0.586767 6.85586 0.656002 6.57694 0.790054C6.29802 0.924107 6.05304 1.1195 5.86031 1.36163L3.47963 4.33754H1.875C1.4276 4.33803 0.998666 4.51598 0.682305 4.83234C0.365945 5.1487 0.187996 5.57764 0.1875 6.02504V7.90004C0.188108 8.44687 0.405602 8.97112 0.792264 9.35778C1.17893 9.74445 1.70318 9.96194 2.25 9.96255H3.25373C3.38024 10.4964 3.68316 10.9719 4.1135 11.3122C4.54383 11.6524 5.07639 11.8376 5.625 11.8376C6.17361 11.8376 6.70617 11.6524 7.1365 11.3122C7.56684 10.9719 7.86976 10.4964 7.99627 9.96255H16.7537C16.8802 10.4964 17.1832 10.9719 17.6135 11.3122C18.0438 11.6524 18.5764 11.8376 19.125 11.8376C19.6736 11.8376 20.2062 11.6524 20.6365 11.3122C21.0668 10.9719 21.3698 10.4964 21.4963 9.96255H22.125C22.5724 9.96205 23.0013 9.7841 23.3177 9.46774C23.6341 9.15138 23.812 8.72245 23.8125 8.27504V6.61707C23.8145 6.21282 23.6705 5.82144 23.407 5.51489C23.1434 5.20835 22.7781 5.00726 22.3781 4.9486ZM13.5579 1.9261L16.4882 4.33754H11.0625V1.71253H12.9623C13.1796 1.71282 13.39 1.78828 13.5579 1.9261ZM6.73884 2.0641C6.82648 1.9541 6.93785 1.86534 7.06462 1.80446C7.1914 1.74358 7.3303 1.71215 7.47094 1.71253H7.6875V4.33754H4.92033L6.73884 2.0641ZM5.625 10.7125C5.36541 10.7125 5.11165 10.6356 4.89581 10.4914C4.67997 10.3471 4.51175 10.1421 4.41241 9.90232C4.31307 9.66249 4.28708 9.39859 4.33772 9.14399C4.38836 8.88939 4.51337 8.65552 4.69692 8.47197C4.88048 8.28841 5.11434 8.16341 5.36894 8.11276C5.62354 8.06212 5.88744 8.08811 6.12727 8.18745C6.3671 8.28679 6.57208 8.45502 6.7163 8.67086C6.86052 8.8867 6.9375 9.14046 6.9375 9.40005C6.9371 9.74802 6.7987 10.0816 6.55264 10.3277C6.30658 10.5737 5.97297 10.7122 5.625 10.7125ZM19.125 10.7125C18.8654 10.7125 18.6117 10.6356 18.3958 10.4914C18.18 10.3471 18.0117 10.1421 17.9124 9.90232C17.8131 9.66249 17.7871 9.39859 17.8377 9.14399C17.8884 8.88939 18.0134 8.65552 18.1969 8.47197C18.3805 8.28841 18.6143 8.16341 18.8689 8.11276C19.1235 8.06212 19.3874 8.08811 19.6273 8.18745C19.8671 8.28679 20.0721 8.45502 20.2163 8.67086C20.3605 8.8867 20.4375 9.14046 20.4375 9.40005C20.4371 9.74802 20.2987 10.0816 20.0526 10.3277C19.8066 10.5737 19.473 10.7122 19.125 10.7125ZM22.6875 8.27504C22.6873 8.42418 22.628 8.56716 22.5226 8.67261C22.4171 8.77807 22.2741 8.83738 22.125 8.83755H21.4963C21.3698 8.30372 21.0668 7.8282 20.6365 7.48792C20.2062 7.14765 19.6736 6.96253 19.125 6.96253C18.5764 6.96253 18.0438 7.14765 17.6135 7.48792C17.1832 7.8282 16.8802 8.30372 16.7537 8.83755H7.99627C7.86976 8.30372 7.56684 7.8282 7.1365 7.48792C6.70617 7.14765 6.17361 6.96253 5.625 6.96253C5.07639 6.96253 4.54383 7.14765 4.1135 7.48792C3.68316 7.8282 3.38024 8.30372 3.25373 8.83755H2.25C2.00145 8.83726 1.76316 8.7384 1.5874 8.56264C1.41165 8.38689 1.31279 8.1486 1.3125 7.90004V6.02504C1.31266 5.87591 1.37198 5.73292 1.47743 5.62747C1.58288 5.52202 1.72587 5.4627 1.875 5.46254H8.25C8.39918 5.46254 8.54226 5.40328 8.64775 5.29779C8.75324 5.1923 8.8125 5.04922 8.8125 4.90004V1.71253H9.9375V4.90004C9.9375 5.04922 9.99676 5.1923 10.1023 5.29779C10.2077 5.40328 10.3508 5.46254 10.5 5.46254H18.2664L22.2094 6.06085C22.3421 6.08177 22.4631 6.1492 22.5507 6.2511C22.6382 6.35299 22.6867 6.48271 22.6875 6.61707V8.27504Z" fill="#111111" fill-opacity="0.7"/>
<path d="M11.25 5.83752H10.5C10.3508 5.83752 10.2077 5.89679 10.1023 6.00228C9.99676 6.10777 9.9375 6.25084 9.9375 6.40002C9.9375 6.54921 9.99676 6.69228 10.1023 6.79777C10.2077 6.90326 10.3508 6.96252 10.5 6.96252H11.25C11.3992 6.96252 11.5423 6.90326 11.6477 6.79777C11.7532 6.69228 11.8125 6.54921 11.8125 6.40002C11.8125 6.25084 11.7532 6.10777 11.6477 6.00228C11.5423 5.89679 11.3992 5.83752 11.25 5.83752Z" fill="#111111" fill-opacity="0.7"/>
<path d="M5.625 9.96252C5.93566 9.96252 6.1875 9.71068 6.1875 9.40002C6.1875 9.08936 5.93566 8.83752 5.625 8.83752C5.31434 8.83752 5.0625 9.08936 5.0625 9.40002C5.0625 9.71068 5.31434 9.96252 5.625 9.96252Z" fill="#111111" fill-opacity="0.7"/>
<path d="M19.125 9.96252C19.4357 9.96252 19.6875 9.71068 19.6875 9.40002C19.6875 9.08936 19.4357 8.83752 19.125 8.83752C18.8143 8.83752 18.5625 9.08936 18.5625 9.40002C18.5625 9.71068 18.8143 9.96252 19.125 9.96252Z" fill="#111111" fill-opacity="0.7"/>
</svg>
