<svg width="28" height="27" viewBox="0 0 28 27" fill="none" xmlns="http://www.w3.org/2000/svg">
<path d="M9.99935 16.1665H23.3327L18.7327 10.1665L15.666 14.1665L13.5993 11.4998L9.99935 16.1665ZM8.66602 21.4998C7.93268 21.4998 7.3049 21.2387 6.78268 20.7165C6.26046 20.1943 5.99935 19.5665 5.99935 18.8332V2.83317C5.99935 2.09984 6.26046 1.47206 6.78268 0.949837C7.3049 0.427615 7.93268 0.166504 8.66602 0.166504H24.666C25.3994 0.166504 26.0271 0.427615 26.5494 0.949837C27.0716 1.47206 27.3327 2.09984 27.3327 2.83317V18.8332C27.3327 19.5665 27.0716 20.1943 26.5494 20.7165C26.0271 21.2387 25.3994 21.4998 24.666 21.4998H8.66602ZM8.66602 18.8332H24.666V2.83317H8.66602V18.8332ZM3.33268 26.8332C2.59935 26.8332 1.97157 26.5721 1.44935 26.0498C0.927127 25.5276 0.666016 24.8998 0.666016 24.1665V5.49984H3.33268V24.1665H21.9993V26.8332H3.33268Z" fill="#4236C5"/>
</svg>
