<svg width="20" height="21" viewBox="0 0 20 21" fill="none" xmlns="http://www.w3.org/2000/svg">
<path d="M9 17.975L4 15.1C3.68333 14.9167 3.4375 14.675 3.2625 14.375C3.0875 14.075 3 13.7417 3 13.375V7.625C3 7.25833 3.0875 6.925 3.2625 6.625C3.4375 6.325 3.68333 6.08333 4 5.9L9 3.025C9.31667 2.84167 9.65 2.75 10 2.75C10.35 2.75 10.6833 2.84167 11 3.025L16 5.9C16.3167 6.08333 16.5625 6.325 16.7375 6.625C16.9125 6.925 17 7.25833 17 7.625V13.375C17 13.7417 16.9125 14.075 16.7375 14.375C16.5625 14.675 16.3167 14.9167 16 15.1L11 17.975C10.6833 18.1583 10.35 18.25 10 18.25C9.65 18.25 9.31667 18.1583 9 17.975ZM9 15.675V11.075L5 8.75V13.375L9 15.675ZM11 15.675L15 13.375V8.75L11 11.075V15.675ZM0 5.5V2.5C0 1.95 0.195833 1.47917 0.5875 1.0875C0.979167 0.695833 1.45 0.5 2 0.5H5V2.5H2V5.5H0ZM5 20.5H2C1.45 20.5 0.979167 20.3042 0.5875 19.9125C0.195833 19.5208 0 19.05 0 18.5V15.5H2V18.5H5V20.5ZM15 20.5V18.5H18V15.5H20V18.5C20 19.05 19.8042 19.5208 19.4125 19.9125C19.0208 20.3042 18.55 20.5 18 20.5H15ZM18 5.5V2.5H15V0.5H18C18.55 0.5 19.0208 0.695833 19.4125 1.0875C19.8042 1.47917 20 1.95 20 2.5V5.5H18ZM10 9.35L13.95 7.025L10 4.75L6.05 7.025L10 9.35Z" fill="#111111" fill-opacity="0.7"/>
</svg>
