<svg width="20" height="17" viewBox="0 0 20 17" fill="none" xmlns="http://www.w3.org/2000/svg">
<path d="M12 9.5H17V7.5H12V9.5ZM12 6.5H17V4.5H12V6.5ZM3 12.5H11V11.95C11 11.2 10.6333 10.6042 9.9 10.1625C9.16667 9.72083 8.2 9.5 7 9.5C5.8 9.5 4.83333 9.72083 4.1 10.1625C3.36667 10.6042 3 11.2 3 11.95V12.5ZM7 8.5C7.55 8.5 8.02083 8.30417 8.4125 7.9125C8.80417 7.52083 9 7.05 9 6.5C9 5.95 8.80417 5.47917 8.4125 5.0875C8.02083 4.69583 7.55 4.5 7 4.5C6.45 4.5 5.97917 4.69583 5.5875 5.0875C5.19583 5.47917 5 5.95 5 6.5C5 7.05 5.19583 7.52083 5.5875 7.9125C5.97917 8.30417 6.45 8.5 7 8.5ZM2 16.5C1.45 16.5 0.979167 16.3042 0.5875 15.9125C0.195833 15.5208 0 15.05 0 14.5V2.5C0 1.95 0.195833 1.47917 0.5875 1.0875C0.979167 0.695833 1.45 0.5 2 0.5H18C18.55 0.5 19.0208 0.695833 19.4125 1.0875C19.8042 1.47917 20 1.95 20 2.5V14.5C20 15.05 19.8042 15.5208 19.4125 15.9125C19.0208 16.3042 18.55 16.5 18 16.5H2ZM2 14.5H18V2.5H2V14.5Z" fill="#111111" fill-opacity="0.7"/>
</svg>
