<svg width="20" height="13" viewBox="0 0 20 13" fill="none" xmlns="http://www.w3.org/2000/svg">
<path d="M2 12.5C1.45 12.5 0.979167 12.3042 0.5875 11.9125C0.195833 11.5208 0 11.05 0 10.5V2.5C0 1.95 0.195833 1.47917 0.5875 1.0875C0.979167 0.695833 1.45 0.5 2 0.5H18C18.55 0.5 19.0208 0.695833 19.4125 1.0875C19.8042 1.47917 20 1.95 20 2.5V10.5C20 11.05 19.8042 11.5208 19.4125 11.9125C19.0208 12.3042 18.55 12.5 18 12.5H2ZM2 10.5H18V2.5H15V6.5H13V2.5H11V6.5H9V2.5H7V6.5H5V2.5H2V10.5Z" fill="#111111" fill-opacity="0.7"/>
</svg>
