<svg width="22" height="17" viewBox="0 0 22 17" fill="none" xmlns="http://www.w3.org/2000/svg">
<path d="M13 9.5C12.1667 9.5 11.4583 9.20833 10.875 8.625C10.2917 8.04167 10 7.33333 10 6.5C10 5.66667 10.2917 4.95833 10.875 4.375C11.4583 3.79167 12.1667 3.5 13 3.5C13.8333 3.5 14.5417 3.79167 15.125 4.375C15.7083 4.95833 16 5.66667 16 6.5C16 7.33333 15.7083 8.04167 15.125 8.625C14.5417 9.20833 13.8333 9.5 13 9.5ZM6 12.5C5.45 12.5 4.97917 12.3042 4.5875 11.9125C4.19583 11.5208 4 11.05 4 10.5V2.5C4 1.95 4.19583 1.47917 4.5875 1.0875C4.97917 0.695833 5.45 0.5 6 0.5H20C20.55 0.5 21.0208 0.695833 21.4125 1.0875C21.8042 1.47917 22 1.95 22 2.5V10.5C22 11.05 21.8042 11.5208 21.4125 11.9125C21.0208 12.3042 20.55 12.5 20 12.5H6ZM8 10.5H18C18 9.95 18.1958 9.47917 18.5875 9.0875C18.9792 8.69583 19.45 8.5 20 8.5V4.5C19.45 4.5 18.9792 4.30417 18.5875 3.9125C18.1958 3.52083 18 3.05 18 2.5H8C8 3.05 7.80417 3.52083 7.4125 3.9125C7.02083 4.30417 6.55 4.5 6 4.5V8.5C6.55 8.5 7.02083 8.69583 7.4125 9.0875C7.80417 9.47917 8 9.95 8 10.5ZM19 16.5H2C1.45 16.5 0.979167 16.3042 0.5875 15.9125C0.195833 15.5208 0 15.05 0 14.5V3.5H2V14.5H19V16.5Z" fill="#111111" fill-opacity="0.7"/>
</svg>
