<svg width="128" height="46" viewBox="0 0 128 46" fill="none" xmlns="http://www.w3.org/2000/svg">
<path fill-rule="evenodd" clip-rule="evenodd" d="M32.7517 1.72006C31.692 0.906681 30.244 0.5 28.4076 0.5H27.7567C27.1601 0.5 26.8618 0.823739 26.8618 1.47122V30.9317L10.5907 4.46583C9.72293 3.06293 8.82802 2.06476 7.90598 1.47122C7.40478 1.11926 6.79141 0.862967 6.06585 0.702327C6.51416 1.35611 6.99612 2.08571 7.50592 2.87844C10.3718 7.33486 14.1932 13.9073 18.0227 20.6171C19.5732 23.3337 21.1248 26.0725 22.616 28.7045L22.6163 28.7052C24.8119 32.5807 26.8765 36.2249 28.6134 39.2264C30.0718 41.7466 31.2933 43.8034 32.1632 45.1576C32.2405 45.2778 32.3146 45.392 32.3856 45.5H32.812C32.823 45.1596 32.8331 44.7722 32.8422 44.3417C32.8745 42.8091 32.8949 40.7407 32.9061 38.3194C32.9283 33.4772 32.9135 27.2319 32.8838 21.0559C32.8541 14.8802 32.8096 8.77509 32.7725 4.2138C32.7652 3.3195 32.7582 2.48455 32.7517 1.72006ZM31.1953 45.5C30.3222 44.127 29.1381 42.1297 27.7478 39.7272C26.0093 36.723 23.94 33.0704 21.7418 29.1903L21.7413 29.1893C20.2505 26.558 18.7005 23.8221 17.1542 21.1128C13.3235 14.4009 9.51442 7.85041 6.66483 3.41934C5.94619 2.30186 5.29331 1.32674 4.71992 0.521118C4.48851 0.507039 4.24884 0.5 4.00092 0.5H2.8274L2.82736 25.6741L2.82738 41.1388L2.82739 45.5H7.74327C8.33989 45.5 8.63818 45.2034 8.63818 44.6097V15.7158L26.3737 44.4478C26.8076 45.1491 27.4042 45.5 28.1635 45.5H31.1953ZM1.82739 45.5L1.82738 41.1388L1.82736 25.6741L1.8274 0.5H1.56025C0.963634 0.5 0.665344 0.823739 0.665344 1.47122V44.6097C0.665344 45.2034 0.963634 45.5 1.56025 45.5H1.82739ZM33.8126 45.5C33.8233 45.1622 33.8331 44.7818 33.8419 44.3628C33.8745 42.8219 33.8949 40.7471 33.906 38.3239C33.9283 33.477 33.9135 27.228 33.8838 21.0511C33.8541 14.8739 33.8096 8.7676 33.7725 4.20566C33.7685 3.72006 33.7646 3.25196 33.7609 2.80313C34.4767 3.90184 34.8346 5.48124 34.8346 7.54136V44.6097C34.8346 45.2034 34.5364 45.5 33.9397 45.5H33.8126Z" fill="#4236C5"/>
<path d="M52.4347 43.15C51.768 44.05 50.918 44.75 49.8847 45.25C48.8513 45.7167 47.7513 45.95 46.5847 45.95C44.718 45.95 43.1347 45.5 41.8347 44.6C40.568 43.7 39.6013 42.5 38.9347 41C38.3013 39.5 37.9847 37.85 37.9847 36.05C37.9847 34.1833 38.3347 32.5167 39.0347 31.05C39.7347 29.55 40.7347 28.3667 42.0347 27.5C43.368 26.6333 44.918 26.2 46.6847 26.2C48.1513 26.2 49.3847 26.4667 50.3847 27C51.418 27.5333 52.2347 28.1667 52.8347 28.9C53.1013 28.1333 53.5347 27.5833 54.1347 27.25C54.768 26.8833 55.518 26.7 56.3847 26.7H56.6347C57.0013 26.7 57.1847 26.9 57.1847 27.3V44.95C57.1847 45.3167 57.0013 45.5 56.6347 45.5H52.9347C52.6013 45.5 52.4347 45.3167 52.4347 44.95V43.15ZM47.6347 41.45C48.268 41.45 48.9513 41.3167 49.6847 41.05C50.4513 40.75 51.1013 40.2167 51.6347 39.45C52.168 38.6833 52.4347 37.55 52.4347 36.05C52.4347 34.55 52.168 33.4333 51.6347 32.7C51.1013 31.9333 50.468 31.4333 49.7347 31.2C49.0013 30.9333 48.318 30.8 47.6847 30.8C47.018 30.8 46.3013 30.95 45.5347 31.25C44.8013 31.55 44.168 32.0833 43.6347 32.85C43.1347 33.6167 42.8847 34.6833 42.8847 36.05C42.8847 37.4833 43.1513 38.6 43.6847 39.4C44.2513 40.1667 44.9013 40.7 45.6347 41C46.368 41.3 47.0347 41.45 47.6347 41.45ZM61.4292 21.8C61.4292 21 61.6792 20.35 62.1792 19.85C62.7125 19.3167 63.3625 19.05 64.1292 19.05C64.8959 19.05 65.5292 19.3167 66.0292 19.85C66.5625 20.35 66.8292 21 66.8292 21.8C66.8292 22.5667 66.5625 23.2167 66.0292 23.75C65.5292 24.2833 64.8959 24.55 64.1292 24.55C63.3625 24.55 62.7125 24.2833 62.1792 23.75C61.6792 23.2167 61.4292 22.5667 61.4292 21.8ZM62.2792 45.5C61.9459 45.5 61.7792 45.3167 61.7792 44.95V27.3C61.7792 26.9 61.9459 26.7 62.2792 26.7H62.5292C63.7959 26.7 64.7792 27.0333 65.4792 27.7C66.1792 28.3667 66.5292 29.45 66.5292 30.95V44.95C66.5292 45.3167 66.3459 45.5 65.9792 45.5H62.2792ZM75.8518 29.45C76.4185 28.3833 77.1018 27.6667 77.9018 27.3C78.7018 26.9 79.7852 26.7 81.1518 26.7H81.7018C82.0352 26.7 82.2018 26.9 82.2018 27.3V30.7C82.2018 31.1 82.0352 31.3 81.7018 31.3H80.4018C78.5685 31.3 77.3685 31.7667 76.8018 32.7C76.2685 33.6 76.0018 34.9333 76.0018 36.7V44.95C76.0018 45.3167 75.8352 45.5 75.5018 45.5H71.7518C71.4518 45.5 71.3018 45.3167 71.3018 44.95V27.3C71.3018 26.9 71.4518 26.7 71.7518 26.7H72.0018C74.1685 26.7 75.4518 27.6167 75.8518 29.45ZM85.355 21.8C85.355 21 85.605 20.35 86.105 19.85C86.6383 19.3167 87.2883 19.05 88.055 19.05C88.8216 19.05 89.455 19.3167 89.955 19.85C90.4883 20.35 90.755 21 90.755 21.8C90.755 22.5667 90.4883 23.2167 89.955 23.75C89.455 24.2833 88.8216 24.55 88.055 24.55C87.2883 24.55 86.6383 24.2833 86.105 23.75C85.605 23.2167 85.355 22.5667 85.355 21.8ZM86.205 45.5C85.8716 45.5 85.705 45.3167 85.705 44.95V27.3C85.705 26.9 85.8716 26.7 86.205 26.7H86.455C87.7216 26.7 88.705 27.0333 89.405 27.7C90.105 28.3667 90.455 29.45 90.455 30.95V44.95C90.455 45.3167 90.2716 45.5 89.905 45.5H86.205ZM99.6776 29.05C100.278 28.25 101.011 27.6 101.878 27.1C102.778 26.6 103.844 26.35 105.078 26.35C108.011 26.35 110.094 27.45 111.328 29.65C111.994 28.75 112.828 27.9833 113.828 27.35C114.828 26.6833 116.028 26.35 117.428 26.35C119.794 26.35 121.644 27.05 122.978 28.45C124.344 29.85 125.028 31.9333 125.028 34.7V44.95C125.028 45.3167 124.828 45.5 124.428 45.5H120.728C120.394 45.5 120.228 45.3167 120.228 44.95V35.25C120.228 33.5833 119.861 32.4 119.128 31.7C118.428 31 117.528 30.65 116.428 30.65C115.328 30.65 114.394 31.0167 113.628 31.75C112.894 32.4833 112.528 33.6667 112.528 35.3V44.95C112.528 45.3167 112.361 45.5 112.028 45.5H108.278C107.911 45.5 107.728 45.3167 107.728 44.95V35.25C107.728 33.5833 107.378 32.4 106.678 31.7C105.978 31 105.061 30.65 103.928 30.65C102.794 30.65 101.861 31.0167 101.128 31.75C100.394 32.4833 100.028 33.6667 100.028 35.3V44.95C100.028 45.3167 99.8443 45.5 99.4776 45.5H95.6776C95.3776 45.5 95.2276 45.3167 95.2276 44.95V27.3C95.2276 26.9 95.3776 26.7 95.6776 26.7H95.9276C96.8943 26.7 97.6943 26.9 98.3276 27.3C98.9943 27.6667 99.4443 28.25 99.6776 29.05Z" fill="#4236C5"/>
</svg>
