<svg width="127" height="68" viewBox="0 0 127 68" fill="none" xmlns="http://www.w3.org/2000/svg">
<path fill-rule="evenodd" clip-rule="evenodd" d="M32.0863 1.22006C31.0267 0.406681 29.5786 0 27.7422 0H27.0914C26.4948 0 26.1965 0.323739 26.1965 0.97122V30.4317L9.92537 3.96583C9.05759 2.56293 8.16268 1.56476 7.24064 0.97122C6.73944 0.619265 6.12606 0.362967 5.40051 0.202327C5.84882 0.856114 6.33078 1.58571 6.84058 2.37844C9.70647 6.83486 13.5279 13.4073 17.3574 20.1171C18.9078 22.8337 20.4594 25.5725 21.9506 28.2045C24.1462 32.08 26.2111 35.7249 27.948 38.7264C29.4064 41.2466 30.6279 43.3034 31.4979 44.6576C31.5751 44.7778 31.6493 44.892 31.7202 45H32.1467C32.1577 44.6596 32.1677 44.2722 32.1768 43.8417C32.2092 42.3091 32.2296 40.2407 32.2407 37.8194C32.263 32.9772 32.2481 26.7319 32.2184 20.5559C32.1888 14.3802 32.1442 8.27509 32.1071 3.7138C32.0999 2.8195 32.0929 1.98455 32.0863 1.22006ZM30.5299 45C29.6568 43.627 28.4728 41.6297 27.0825 39.2272C25.344 36.223 23.2747 32.5704 21.0764 28.6903L21.0759 28.6893C19.5852 26.058 18.0352 23.3221 16.4889 20.6128C12.6582 13.9009 8.84908 7.35041 5.99949 2.91934C5.28085 1.80186 4.62797 0.826739 4.05458 0.0211175C3.82317 0.00703916 3.5835 0 3.33557 0H2.16205L2.16202 25.1741L2.16204 40.6388L2.16205 45H7.07793C7.67455 45 7.97284 44.7034 7.97284 44.1097V15.2158L25.7083 43.9478C26.1422 44.6491 26.7388 45 27.4982 45H30.5299ZM1.16205 45L1.16204 40.6388L1.16202 25.1741L1.16205 0H0.89491C0.29829 0 0 0.323739 0 0.97122V44.1097C0 44.7034 0.29829 45 0.89491 45H1.16205ZM33.1472 45C33.158 44.6622 33.1677 44.2818 33.1766 43.8628C33.2091 42.3219 33.2296 40.2471 33.2407 37.8239C33.263 32.977 33.2481 26.728 33.2184 20.5511C33.1888 14.3739 33.1442 8.2676 33.1071 3.70566C33.1032 3.22006 33.0993 2.75196 33.0955 2.30313C33.8114 3.40184 34.1693 4.98124 34.1693 7.04136V44.1097C34.1693 44.7034 33.871 45 33.2744 45H33.1472Z" fill="#F2FAFC"/>
<path d="M51.7693 42.6498C51.1026 43.5498 50.2526 44.2498 49.2193 44.7498C48.186 45.2165 47.086 45.4498 45.9193 45.4498C44.0526 45.4498 42.4693 44.9998 41.1693 44.0998C39.9026 43.1998 38.936 41.9998 38.2693 40.4998C37.636 38.9998 37.3193 37.3498 37.3193 35.5498C37.3193 33.6831 37.6693 32.0165 38.3693 30.5498C39.0693 29.0498 40.0693 27.8665 41.3693 26.9998C42.7026 26.1331 44.2526 25.6998 46.0193 25.6998C47.486 25.6998 48.7193 25.9665 49.7193 26.4998C50.7526 27.0331 51.5693 27.6665 52.1693 28.3998C52.436 27.6331 52.8693 27.0831 53.4693 26.7498C54.1026 26.3831 54.8526 26.1998 55.7193 26.1998H55.9693C56.336 26.1998 56.5193 26.3998 56.5193 26.7998V44.4498C56.5193 44.8165 56.336 44.9998 55.9693 44.9998H52.2693C51.936 44.9998 51.7693 44.8165 51.7693 44.4498V42.6498ZM46.9693 40.9498C47.6026 40.9498 48.286 40.8165 49.0193 40.5498C49.786 40.2498 50.436 39.7165 50.9693 38.9498C51.5026 38.1831 51.7693 37.0498 51.7693 35.5498C51.7693 34.0498 51.5026 32.9331 50.9693 32.1998C50.436 31.4331 49.8026 30.9331 49.0693 30.6998C48.336 30.4331 47.6526 30.2998 47.0193 30.2998C46.3526 30.2998 45.636 30.4498 44.8693 30.7498C44.136 31.0498 43.5026 31.5831 42.9693 32.3498C42.4693 33.1165 42.2193 34.1831 42.2193 35.5498C42.2193 36.9831 42.486 38.0998 43.0193 38.8998C43.586 39.6665 44.236 40.1998 44.9693 40.4998C45.7026 40.7998 46.3693 40.9498 46.9693 40.9498ZM60.7638 21.2998C60.7638 20.4998 61.0138 19.8498 61.5138 19.3498C62.0472 18.8165 62.6972 18.5498 63.4638 18.5498C64.2305 18.5498 64.8638 18.8165 65.3638 19.3498C65.8972 19.8498 66.1638 20.4998 66.1638 21.2998C66.1638 22.0665 65.8972 22.7165 65.3638 23.2498C64.8638 23.7831 64.2305 24.0498 63.4638 24.0498C62.6972 24.0498 62.0472 23.7831 61.5138 23.2498C61.0138 22.7165 60.7638 22.0665 60.7638 21.2998ZM61.6138 44.9998C61.2805 44.9998 61.1138 44.8165 61.1138 44.4498V26.7998C61.1138 26.3998 61.2805 26.1998 61.6138 26.1998H61.8638C63.1305 26.1998 64.1138 26.5331 64.8138 27.1998C65.5138 27.8665 65.8638 28.9498 65.8638 30.4498V44.4498C65.8638 44.8165 65.6805 44.9998 65.3138 44.9998H61.6138ZM75.1865 28.9498C75.7532 27.8831 76.4365 27.1665 77.2365 26.7998C78.0365 26.3998 79.1198 26.1998 80.4865 26.1998H81.0365C81.3698 26.1998 81.5365 26.3998 81.5365 26.7998V30.1998C81.5365 30.5998 81.3698 30.7998 81.0365 30.7998H79.7365C77.9032 30.7998 76.7032 31.2665 76.1365 32.1998C75.6032 33.0998 75.3365 34.4331 75.3365 36.1998V44.4498C75.3365 44.8165 75.1698 44.9998 74.8365 44.9998H71.0865C70.7865 44.9998 70.6365 44.8165 70.6365 44.4498V26.7998C70.6365 26.3998 70.7865 26.1998 71.0865 26.1998H71.3365C73.5032 26.1998 74.7865 27.1165 75.1865 28.9498ZM84.6896 21.2998C84.6896 20.4998 84.9396 19.8498 85.4396 19.3498C85.9729 18.8165 86.6229 18.5498 87.3896 18.5498C88.1563 18.5498 88.7896 18.8165 89.2896 19.3498C89.8229 19.8498 90.0896 20.4998 90.0896 21.2998C90.0896 22.0665 89.8229 22.7165 89.2896 23.2498C88.7896 23.7831 88.1563 24.0498 87.3896 24.0498C86.6229 24.0498 85.9729 23.7831 85.4396 23.2498C84.9396 22.7165 84.6896 22.0665 84.6896 21.2998ZM85.5396 44.9998C85.2063 44.9998 85.0396 44.8165 85.0396 44.4498V26.7998C85.0396 26.3998 85.2063 26.1998 85.5396 26.1998H85.7896C87.0563 26.1998 88.0396 26.5331 88.7396 27.1998C89.4396 27.8665 89.7896 28.9498 89.7896 30.4498V44.4498C89.7896 44.8165 89.6063 44.9998 89.2396 44.9998H85.5396ZM99.0123 28.5498C99.6123 27.7498 100.346 27.0998 101.212 26.5998C102.112 26.0998 103.179 25.8498 104.412 25.8498C107.346 25.8498 109.429 26.9498 110.662 29.1498C111.329 28.2498 112.162 27.4831 113.162 26.8498C114.162 26.1831 115.362 25.8498 116.762 25.8498C119.129 25.8498 120.979 26.5498 122.312 27.9498C123.679 29.3498 124.362 31.4331 124.362 34.1998V44.4498C124.362 44.8165 124.162 44.9998 123.762 44.9998H120.062C119.729 44.9998 119.562 44.8165 119.562 44.4498V34.7498C119.562 33.0831 119.196 31.8998 118.462 31.1998C117.762 30.4998 116.862 30.1498 115.762 30.1498C114.662 30.1498 113.729 30.5165 112.962 31.2498C112.229 31.9831 111.862 33.1665 111.862 34.7998V44.4498C111.862 44.8165 111.696 44.9998 111.362 44.9998H107.612C107.246 44.9998 107.062 44.8165 107.062 44.4498V34.7498C107.062 33.0831 106.712 31.8998 106.012 31.1998C105.312 30.4998 104.396 30.1498 103.262 30.1498C102.129 30.1498 101.196 30.5165 100.462 31.2498C99.7289 31.9831 99.3623 33.1665 99.3623 34.7998V44.4498C99.3623 44.8165 99.1789 44.9998 98.8123 44.9998H95.0123C94.7123 44.9998 94.5623 44.8165 94.5623 44.4498V26.7998C94.5623 26.3998 94.7123 26.1998 95.0123 26.1998H95.2623C96.2289 26.1998 97.0289 26.3998 97.6623 26.7998C98.3289 27.1665 98.7789 27.7498 99.0123 28.5498Z" fill="#F2FAFC"/>
<path d="M40.5014 56.6H42.0614V65H40.5014V56.6ZM36.1574 65H34.5974V56.6H36.1574V65ZM40.6214 61.4H36.0254V60.068H40.6214V61.4ZM48.2483 65.12C47.5923 65.12 46.9883 65.012 46.4363 64.796C45.8843 64.58 45.4043 64.28 44.9963 63.896C44.5883 63.504 44.2723 63.048 44.0483 62.528C43.8243 62 43.7123 61.424 43.7123 60.8C43.7123 60.176 43.8243 59.604 44.0483 59.084C44.2723 58.556 44.5883 58.1 44.9963 57.716C45.4043 57.324 45.8843 57.02 46.4363 56.804C46.9883 56.588 47.5883 56.48 48.2363 56.48C48.8923 56.48 49.4923 56.588 50.0363 56.804C50.5883 57.02 51.0683 57.324 51.4763 57.716C51.8843 58.1 52.2003 58.556 52.4243 59.084C52.6483 59.604 52.7603 60.176 52.7603 60.8C52.7603 61.424 52.6483 62 52.4243 62.528C52.2003 63.056 51.8843 63.512 51.4763 63.896C51.0683 64.28 50.5883 64.58 50.0363 64.796C49.4923 65.012 48.8963 65.12 48.2483 65.12ZM48.2363 63.752C48.6603 63.752 49.0523 63.68 49.4123 63.536C49.7723 63.392 50.0843 63.188 50.3483 62.924C50.6123 62.652 50.8163 62.34 50.9603 61.988C51.1123 61.628 51.1883 61.232 51.1883 60.8C51.1883 60.368 51.1123 59.976 50.9603 59.624C50.8163 59.264 50.6123 58.952 50.3483 58.688C50.0843 58.416 49.7723 58.208 49.4123 58.064C49.0523 57.92 48.6603 57.848 48.2363 57.848C47.8123 57.848 47.4203 57.92 47.0603 58.064C46.7083 58.208 46.3963 58.416 46.1243 58.688C45.8603 58.952 45.6523 59.264 45.5003 59.624C45.3563 59.976 45.2843 60.368 45.2843 60.8C45.2843 61.224 45.3563 61.616 45.5003 61.976C45.6523 62.336 45.8603 62.652 46.1243 62.924C46.3883 63.188 46.7003 63.392 47.0603 63.536C47.4203 63.68 47.8123 63.752 48.2363 63.752ZM54.4138 65V56.6H55.9738V63.68H60.3658V65H54.4138ZM61.5974 65V56.6H65.2694C66.1814 56.6 66.9814 56.776 67.6694 57.128C68.3574 57.48 68.8934 57.968 69.2774 58.592C69.6614 59.216 69.8534 59.952 69.8534 60.8C69.8534 61.64 69.6614 62.376 69.2774 63.008C68.8934 63.632 68.3574 64.12 67.6694 64.472C66.9814 64.824 66.1814 65 65.2694 65H61.5974ZM63.1574 63.68H65.1974C65.8294 63.68 66.3734 63.56 66.8294 63.32C67.2934 63.08 67.6494 62.744 67.8974 62.312C68.1534 61.88 68.2814 61.376 68.2814 60.8C68.2814 60.216 68.1534 59.712 67.8974 59.288C67.6494 58.856 67.2934 58.52 66.8294 58.28C66.3734 58.04 65.8294 57.92 65.1974 57.92H63.1574V63.68ZM71.5115 65V56.6H73.0715V65H71.5115ZM75.3435 65V56.6H76.6275L81.8955 63.068H81.2595V56.6H82.8075V65H81.5235L76.2555 58.532H76.8915V65H75.3435ZM88.9824 65.12C88.3264 65.12 87.7224 65.016 87.1704 64.808C86.6264 64.592 86.1504 64.292 85.7424 63.908C85.3344 63.516 85.0184 63.056 84.7944 62.528C84.5704 62 84.4584 61.424 84.4584 60.8C84.4584 60.176 84.5704 59.6 84.7944 59.072C85.0184 58.544 85.3344 58.088 85.7424 57.704C86.1584 57.312 86.6424 57.012 87.1944 56.804C87.7464 56.588 88.3504 56.48 89.0064 56.48C89.7184 56.48 90.3584 56.596 90.9264 56.828C91.5024 57.06 91.9864 57.4 92.3784 57.848L91.3944 58.808C91.0664 58.48 90.7104 58.24 90.3264 58.088C89.9504 57.928 89.5344 57.848 89.0784 57.848C88.6384 57.848 88.2304 57.92 87.8544 58.064C87.4784 58.208 87.1544 58.412 86.8824 58.676C86.6104 58.94 86.3984 59.252 86.2464 59.612C86.1024 59.972 86.0304 60.368 86.0304 60.8C86.0304 61.224 86.1024 61.616 86.2464 61.976C86.3984 62.336 86.6104 62.652 86.8824 62.924C87.1544 63.188 87.4744 63.392 87.8424 63.536C88.2104 63.68 88.6184 63.752 89.0664 63.752C89.4824 63.752 89.8824 63.688 90.2664 63.56C90.6584 63.424 91.0304 63.2 91.3824 62.888L92.2704 64.052C91.8304 64.404 91.3184 64.672 90.7344 64.856C90.1584 65.032 89.5744 65.12 88.9824 65.12ZM90.7944 63.848V60.704H92.2704V64.052L90.7944 63.848Z" fill="white"/>
</svg>
