<svg width="131" height="46" viewBox="0 0 131 46" fill="none" xmlns="http://www.w3.org/2000/svg">
<g clip-path="url(#clip0_351_2865)">
<path d="M24.2259 31.7671C21.1288 28.4437 18.0507 25.1681 15.0019 21.8655C13.5539 20.297 12.1687 18.6707 10.7392 17.0849C10.3797 16.6861 10.3935 16.3981 10.8452 16.1062C12.1109 15.2882 13.3717 14.4625 14.6317 13.6356C15.0476 13.3627 15.3682 13.4615 15.6934 13.816C17.7593 16.0683 19.8435 18.3036 21.9086 20.5565C24.5965 23.4889 27.263 26.4409 29.9568 29.3679C31.555 31.1045 33.1899 32.8074 34.804 34.5295C35.3266 35.0872 35.8596 35.6383 36.3384 36.2322C36.5209 36.4587 36.6541 36.7959 36.6574 37.0844C36.682 39.2438 36.68 41.4038 36.6528 43.5631C36.6493 43.845 36.4551 44.1244 36.3493 44.4049C36.0658 44.2683 35.7105 44.1991 35.5098 43.985C32.7598 41.0494 30.0285 38.0962 27.2985 35.1419C26.2768 34.0363 25.2703 32.9168 24.2259 31.7671ZM29.8948 36.2147C30.3739 36.2618 30.3856 36.6205 30.4761 36.9859C30.5471 37.2727 30.7571 37.7235 30.9506 37.7484C31.9467 37.8763 32.1958 38.746 32.6038 39.3807C33.1149 40.1758 33.149 40.248 34.0937 40.1681C34.3256 40.1485 34.6243 40.5125 34.8237 40.7563C34.8857 40.8322 34.722 41.0927 34.6617 41.2686C34.5621 41.3034 34.4624 41.3382 34.3628 41.3729C34.6188 41.6338 34.8776 42.1135 35.1302 42.1103C35.6714 42.1034 35.5856 41.54 35.5907 41.1554C35.6079 39.8577 35.715 38.5507 35.1767 37.3057C35.0367 36.9819 34.9653 36.6136 34.9373 36.2598C34.8996 35.7819 34.701 35.5824 34.2137 35.5997C33.684 35.6186 33.3404 35.4696 33.1648 34.8285C32.9556 34.0645 32.4901 33.3708 32.1492 32.6744C31.6498 32.9337 31.3173 33.1064 30.9847 33.2792C30.9313 33.2132 30.8779 33.1473 30.8245 33.0814C31.0223 32.7991 31.2233 32.5191 31.417 32.234C31.6192 31.9365 31.5858 31.7485 31.1882 31.6679C30.9623 31.6221 30.6206 31.5461 30.5581 31.3917C30.0627 30.1694 28.3722 30.024 28.0882 28.6169C28.0553 28.4537 27.7983 28.3446 27.6692 28.1902C27.1739 27.5981 26.7831 26.8602 26.1723 26.4395C25.5755 26.0285 25.1042 25.6123 24.7939 24.9688C24.7395 24.8559 24.456 24.8714 24.3071 24.7803C24.1914 24.7096 24.0723 24.5774 24.0407 24.4511C23.9887 24.2425 24.006 24.0165 23.9941 23.7978C23.8241 23.95 23.6643 24.1165 23.4805 24.2497C23.3428 24.3495 23.1702 24.4755 23.0198 24.4674C22.7519 24.4529 22.489 24.3456 22.224 24.2772C22.3567 24.0615 22.4799 23.8391 22.6254 23.6325C22.7276 23.4872 22.9121 23.3811 22.9659 23.2251C23.0313 23.0357 22.9978 22.8123 23.0072 22.6036C22.815 22.647 22.619 22.6784 22.4321 22.7382C22.3227 22.7732 22.2279 22.8535 22.1094 22.9235C21.9427 22.0735 21.9407 22.0754 21.1961 21.2842C21.0898 21.1712 21.0257 21.0192 20.9224 20.9026C20.4394 20.3575 19.7096 20.0047 19.5892 19.1756C19.5825 19.1299 19.484 19.0991 19.4307 19.0582C18.6958 18.4946 18.0356 17.8861 17.7303 16.956C17.6377 16.6742 17.3372 16.4436 17.0952 16.2316C16.5802 15.7804 16.0515 15.3431 15.5063 14.9293C15.3144 14.7836 14.9799 14.5782 14.8449 14.6506C14.403 14.8877 14.0229 15.2399 13.5533 15.598C13.9578 15.683 14.294 15.7538 14.6302 15.8245C14.6255 15.8942 14.6208 15.9638 14.6161 16.0335C14.3925 16.0594 14.1685 16.0827 13.9453 16.1118C13.4359 16.1781 12.92 16.2161 12.4201 16.3263C12.0885 16.3994 11.8895 16.6117 11.9981 17.0268C12.3425 18.3439 13.3626 18.936 14.6653 18.5551C14.7722 18.5239 14.899 18.561 15.0372 18.5673C14.2754 20.3668 14.7501 21.254 16.5764 21.3981C16.4623 22.1205 16.7322 22.6071 17.5223 22.6833C17.5617 22.6871 17.6296 22.7296 17.6299 22.7547C17.638 23.4344 18.0729 23.7586 18.5581 24.1643C18.8135 24.3777 18.9576 24.7942 19.361 24.9463C19.4924 24.9958 19.6051 25.1402 19.6876 25.2664C19.9736 25.7043 20.2237 26.1664 20.5229 26.5947C20.8933 27.1249 21.417 27.5805 21.6618 28.1585C22.0309 29.0297 22.6325 29.369 23.5092 29.461C23.6791 29.4788 23.9371 29.7779 23.9521 29.9635C24.0354 30.9994 24.1915 31.2475 25.161 31.4182C25.6707 31.5079 25.9325 31.7375 26.0644 32.2523C26.3511 33.3714 26.4508 33.4205 27.6303 33.5178C27.7157 33.5248 27.7988 33.5594 27.7037 33.5348C27.96 34.0519 28.206 34.4251 28.3324 34.8352C28.4794 35.312 28.6813 35.6182 29.2211 35.7014C29.4281 35.7333 29.596 36.0198 29.7418 36.2212C29.7118 36.2652 29.6817 36.3093 29.6517 36.3534C29.6697 36.3657 29.6877 36.3779 29.7058 36.3902C29.7351 36.3272 29.7644 36.2641 29.8948 36.2147Z" fill="white"/>
<path d="M8.46041 15.273C5.99133 16.9123 3.5629 18.5247 1.012 20.2184C0.955947 19.8668 0.895662 19.6611 0.894748 19.4551C0.88876 18.1058 0.906822 16.7564 0.89268 15.4072C0.887115 14.8765 1.10916 14.5298 1.54686 14.2452C4.97768 12.0147 8.40616 9.78048 11.8231 7.52876C14.6017 5.69767 17.3761 3.85945 20.1238 1.98269C20.84 1.49355 21.3813 1.49154 22.115 1.98391C26.3901 4.85271 30.699 7.67108 34.9969 10.5058C36.8733 11.7433 38.7424 12.9922 40.6329 14.2077C41.1862 14.5635 41.4242 14.9999 41.4071 15.6558C41.3755 16.8693 41.4029 18.0843 41.3987 19.2987C41.3978 19.5394 41.3652 19.78 41.3337 20.2021C40.6436 19.7789 40.0557 19.4413 39.491 19.0686C33.5617 15.1548 27.6343 11.2378 21.7129 7.31194C21.3031 7.0402 20.9778 7.01973 20.5518 7.30222C16.5421 9.9611 12.5198 12.6008 8.46041 15.273ZM28.4461 11.1419C30.9836 12.8255 33.5285 14.498 36.0555 16.1969C37.4836 17.157 38.8829 18.1599 40.294 19.1451C40.5668 19.3356 40.9103 19.4624 40.9599 19.0194C41.1186 17.6015 41.5353 16.1184 40.2486 14.9402C40.1418 14.8425 40.1188 14.6585 40.0361 14.5278C39.9432 14.3811 39.8546 14.2036 39.7158 14.1188C38.8431 13.5857 37.9545 13.0789 37.077 12.5536C36.8679 12.4284 36.6799 12.2677 36.4843 12.1205C36.1327 11.8559 35.797 11.5671 35.4291 11.3276C34.532 10.7436 33.6079 10.2007 32.7189 9.60506C32.1043 9.19324 31.5571 8.6783 30.9325 8.2844C29.5177 7.39207 28.0615 6.56534 26.6448 5.67584C25.2228 4.78301 23.832 3.84043 22.4189 2.93314C22.0632 2.70477 21.6857 2.50188 21.2983 2.33308C20.5437 2.00433 20.5373 2.01805 20.3631 2.84545C20.1538 2.84545 19.8929 2.76506 19.7347 2.85855C18.7371 3.44826 17.7394 4.04343 16.7866 4.70167C15.8772 5.32986 15.1235 6.191 13.9853 6.46494C13.8064 6.50798 13.6423 6.68 13.5072 6.82557C12.7181 7.67554 11.8654 8.422 10.7073 8.73466C10.5201 8.7852 10.3488 8.91707 10.1868 9.03426C9.49822 9.5321 8.82423 10.0504 8.12918 10.5388C7.30746 11.1162 6.46085 11.6583 5.64195 12.2396C5.17124 12.5737 4.76132 13.2058 4.2756 13.2587C3.46726 13.3466 2.98352 13.9376 2.52005 14.3211C1.56143 15.1143 1.09033 16.3176 1.32287 17.6502C1.37199 17.9317 1.58436 18.2008 1.57648 18.4713C1.5695 18.7115 1.36118 18.9459 1.24173 19.1828C2.88748 18.333 4.4728 17.4593 5.97897 16.4656C7.56323 15.4204 9.05656 14.2384 10.6205 13.1609C11.3017 12.6915 12.0977 12.3874 12.773 11.911C13.5182 11.3852 14.5533 11.1646 14.8457 10.0828C15.5072 10.1493 15.9792 9.83154 16.4084 9.34478C16.6332 9.08987 16.9756 8.92831 17.2842 8.76012C17.7709 8.49489 18.2957 8.29451 18.7644 8.00254C19.3165 7.65863 19.7991 7.19796 20.365 6.88356C20.66 6.71962 21.0688 6.72176 21.427 6.71787C22.2099 6.70939 22.6683 7.30334 23.2488 7.70796C24.9251 8.87638 26.6552 9.9675 28.4461 11.1419Z" fill="white"/>
<path d="M5.48697 28.9046C5.4867 26.1617 5.51903 23.4855 5.46753 20.811C5.4507 19.9369 5.72083 19.3601 6.48792 18.9567C7.02335 18.6751 7.52057 18.3197 8.02859 17.9876C8.36874 17.7653 8.63871 17.8113 8.91577 18.1144C9.53285 18.7897 10.1604 19.4565 10.8057 20.1047C11.5016 20.8036 11.8593 21.5738 11.8598 22.6144C11.8628 29.2896 11.9278 35.9648 11.9712 42.64C11.9731 42.9322 11.9683 43.2246 11.9581 43.5166C11.9441 43.9176 11.7424 44.1518 11.3305 44.1528C9.5995 44.157 7.86845 44.1574 6.13744 44.1523C5.68916 44.151 5.48849 43.8876 5.49372 43.4601C5.51736 41.5283 5.55593 39.5966 5.56968 37.6647C5.58392 35.6649 5.58501 33.6649 5.57318 31.6651C5.56787 30.7673 5.5171 29.8698 5.48697 28.9046ZM11.382 41.9659C11.3989 41.6296 11.4291 41.2934 11.4304 40.957C11.4372 39.0504 11.4381 37.1438 11.4391 35.2372C11.4402 33.3984 11.4408 31.5595 11.438 29.7208C11.4369 28.9583 11.4161 28.1957 11.4228 27.4334C11.4366 25.865 11.5413 24.2926 11.4612 22.7294C11.3871 21.2812 9.9987 19.9215 8.70943 19.7492C8.69448 19.4642 8.68046 19.1969 8.66644 18.9295C8.3877 18.9975 8.0997 19.0405 7.83244 19.1395C7.45494 19.2794 7.0838 19.4436 6.72805 19.6317C6.56321 19.7189 6.35836 19.8638 6.31426 20.0222C6.14187 20.6417 5.91493 21.2757 5.90826 21.9065C5.87024 25.498 5.88975 29.09 5.88986 32.6819C5.88995 35.4238 5.88857 38.1657 5.89171 40.9076C5.89249 41.598 5.76484 42.3351 6.49747 42.6871C6.38103 43.0297 6.29449 43.2843 6.20795 43.5388C6.4803 43.611 6.75272 43.7446 7.02499 43.7443C8.05748 43.7431 9.09234 43.733 10.1217 43.6606C11.1652 43.5873 11.1605 43.5531 11.264 42.5394C11.2799 42.3839 11.3277 42.2317 11.382 41.9659Z" fill="white"/>
<path d="M36.6752 20.5639C36.6755 24.8248 36.6755 29.0221 36.6755 33.2194C36.6074 33.2583 36.5392 33.2971 36.4711 33.3359C36.1371 33.0071 35.7892 32.6911 35.4716 32.3471C34.0236 30.7789 32.6037 29.1844 31.1316 27.6393C30.5838 27.0644 30.3049 26.4673 30.3127 25.6623C30.3423 22.6034 30.3215 19.544 30.3347 16.4848C30.3358 16.2344 30.4513 15.9845 30.5135 15.7344C30.7496 15.8357 31.0072 15.9043 31.2183 16.0435C32.7958 17.0834 34.3558 18.15 35.9402 19.1792C36.4408 19.5044 36.7426 19.8855 36.6752 20.5639ZM30.8952 17.7905C30.7949 18.4037 30.6272 19.0147 30.6079 19.6305C30.5648 21 30.6325 22.3732 30.5874 23.7426C30.5333 25.3837 30.9119 26.7973 32.3507 27.7789C32.5183 27.8933 32.5832 28.1506 32.7147 28.3274C32.9836 28.6886 33.2447 29.0591 33.5467 29.3913C34.0035 29.8938 34.4882 30.3713 34.9708 30.8497C35.1035 30.9813 35.3236 31.2019 35.4106 31.1646C35.5811 31.0915 35.788 30.8742 35.8021 30.702C35.91 29.3856 36.0175 28.0666 36.043 26.7469C36.0782 24.9283 35.9718 23.1045 36.0706 21.2909C36.1087 20.5913 35.9598 20.1058 35.4655 19.702C34.9064 19.2451 34.3308 18.8035 33.7301 18.4036C33.0826 17.9724 32.4043 17.5854 31.7247 17.2056C31.5452 17.1052 31.2308 16.9975 31.1217 17.0808C30.9746 17.1932 30.9662 17.4872 30.8952 17.7905Z" fill="white"/>
<path d="M35.9971 3.66016C36.39 3.67234 36.6522 3.84762 36.653 4.26397C36.6557 5.76516 36.6457 7.26637 36.6351 8.76753C36.6347 8.8262 36.5788 8.88446 36.5153 9.00815C36.3604 8.94028 36.1954 8.89474 36.0601 8.80457C34.344 7.66085 32.6171 6.53193 30.9333 5.34225C30.6371 5.13301 30.5256 4.66249 30.3633 4.22545C30.6588 4.02893 30.9128 3.85271 31.1822 3.82464C31.6917 3.77157 32.2104 3.81588 32.7245 3.79778C33.8156 3.75937 34.9062 3.70688 35.9971 3.66016Z" fill="white"/>
<path d="M6.46136 4.05908C7.18806 4.82064 7.91257 5.5843 8.64248 6.34277C8.96101 6.67376 8.96584 6.97585 8.56395 7.22675C7.80428 7.70102 7.03647 8.16225 6.19228 8.60789C5.62505 7.25806 5.69153 5.89238 5.89564 4.53157C5.92289 4.34988 6.26504 4.21542 6.46136 4.05908Z" fill="white"/>
<path d="M20.4593 12.9781C19.9705 12.9744 19.4816 12.9738 18.9928 12.966C18.5638 12.9591 18.3202 12.7378 18.3263 12.3066C18.3347 11.709 18.3722 11.1118 18.4677 10.4819C19.0295 10.4879 19.5323 10.4761 20.0074 10.585C20.2629 10.6436 20.6635 10.907 20.6657 11.0821C20.6734 11.7132 20.5396 12.346 20.4593 12.9781Z" fill="white"/>
<path d="M22.2833 13.5199C23.9942 13.5075 24.2436 13.8052 23.9637 15.4521C23.9562 15.4963 23.9638 15.5505 23.9407 15.5833C23.424 16.3182 22.6724 15.8177 22.0362 15.9087C21.9065 15.9273 21.633 15.5707 21.58 15.35C21.4984 15.0102 21.5699 14.6368 21.5404 14.2806C21.4981 13.7693 21.7098 13.5172 22.2833 13.5199ZM22.8065 14.1542C22.6785 14.1919 22.4994 14.1901 22.4331 14.2757C22.2918 14.458 22.2091 14.6857 22.1024 14.8948C22.3869 14.8285 22.6977 14.8129 22.9493 14.6829C23.2642 14.5201 23.2197 14.3022 22.8065 14.1542Z" fill="white"/>
<path d="M18.3119 14.4803C18.2575 13.7453 18.591 13.5151 19.2366 13.5075C20.8534 13.4884 21.2078 13.9055 20.853 15.5126C20.8257 15.6361 20.7439 15.8453 20.6805 15.848C20.0166 15.8757 19.3326 15.9567 18.6975 15.8206C18.5009 15.7784 18.4337 15.1213 18.314 14.7435C18.2947 14.6824 18.3113 14.6099 18.3119 14.4803ZM18.9483 14.5806C18.9556 14.7598 18.9399 15.0896 18.9738 15.0948C19.3042 15.1454 19.6766 15.2276 19.9639 15.1147C20.0942 15.0635 20.0604 14.5947 20.101 14.3153C19.7805 14.3318 19.4594 14.3425 19.1399 14.3709C19.0899 14.3754 19.0472 14.4609 18.9483 14.5806Z" fill="white"/>
<path d="M21.6007 10.5876C22.2576 10.5139 22.8745 10.4795 23.4915 10.4464C23.5129 10.4453 23.5382 10.4513 23.556 10.4628C24.2959 10.9413 23.9016 11.6781 23.9539 12.3038C23.9894 12.7273 23.7078 12.9531 23.2785 12.9672C21.2049 13.0355 21.4123 12.9836 21.4222 11.2712C21.4234 11.0563 21.5124 10.8419 21.6007 10.5876ZM23.4566 12.4476C23.5101 12.1436 23.5654 11.84 23.6167 11.5357C23.6992 11.047 23.4742 10.8199 22.9953 10.8223C22.7285 10.8236 22.4572 10.8091 22.1959 10.851C21.6773 10.934 21.6746 11.3388 21.728 11.728C21.7751 12.0717 21.6294 12.5711 22.2026 12.6023C22.5949 12.6237 22.9925 12.5478 23.4566 12.4476Z" fill="white"/>
<path d="M6.4359 4.02019C6.26459 4.21551 5.92244 4.34997 5.89519 4.53166C5.69108 5.89248 5.62459 7.25816 6.14794 8.62343C5.9641 8.87603 5.66983 9.06497 5.64728 8.57752C5.56981 6.90238 5.55123 5.22448 5.5176 3.54748C5.51608 3.4714 5.58659 3.39387 5.6997 3.15869C5.97663 3.47897 6.19376 3.73009 6.4359 4.02019Z" fill="white"/>
<path d="M35.9352 3.65948C34.9077 3.70675 33.817 3.75924 32.7259 3.79765C32.2118 3.81575 31.6931 3.77144 31.1837 3.82451C30.9142 3.85258 30.6602 4.02879 30.3633 4.1715C30.3872 3.67934 30.7775 3.66051 31.1725 3.65996C32.739 3.65777 34.3054 3.65898 35.9352 3.65948Z" fill="white"/>
<path d="M20.5057 12.9573C20.5394 12.3458 20.6732 11.713 20.6654 11.0819C20.6633 10.9068 20.2627 10.6434 20.0072 10.5848C19.5321 10.4759 19.0293 10.4877 18.4844 10.4288C19.012 10.4094 19.5933 10.4109 20.1745 10.4114C20.6424 10.4117 20.911 10.6467 20.8653 11.112C20.8051 11.7256 21.1516 12.4155 20.5057 12.9573Z" fill="white"/>
<path d="M29.7822 36.1904C29.5964 36.0199 29.4286 35.7334 29.2215 35.7015C28.6818 35.6183 28.4798 35.3121 28.3328 34.8353C28.2064 34.4252 27.9605 34.052 27.7041 33.5349C27.7992 33.5595 27.7161 33.525 27.6307 33.5179C26.4512 33.4206 26.3516 33.3715 26.0648 32.2524C25.933 31.7376 25.6712 31.508 25.1615 31.4183C24.1919 31.2477 24.0359 30.9995 23.9525 29.9636C23.9376 29.778 23.6795 29.4789 23.5097 29.4611C22.633 29.3691 22.0313 29.0298 21.6623 28.1586C21.4174 27.5806 20.8937 27.125 20.5233 26.5948C20.2241 26.1666 19.974 25.7044 19.688 25.2665C19.6055 25.1403 19.4929 24.9959 19.3615 24.9464C18.958 24.7943 18.814 24.3779 18.5586 24.1644C18.0733 23.7587 17.6385 23.4345 17.6304 22.7548C17.6301 22.7297 17.5621 22.6872 17.5227 22.6834C16.7326 22.6073 16.4628 22.1206 16.5769 21.3982C14.7505 21.2541 14.2758 20.3669 15.0376 18.5674C14.8995 18.5611 14.7726 18.524 14.6658 18.5552C13.363 18.9361 12.343 18.344 11.9985 17.0269C11.89 16.6118 12.0889 16.3996 12.4205 16.3264C12.9204 16.2162 13.4363 16.1782 13.9458 16.1119C14.169 16.0828 14.3929 16.0595 14.6166 16.0336C14.6212 15.9639 14.6259 15.8943 14.6306 15.8246C14.2944 15.7539 13.9582 15.6831 13.5538 15.5981C14.0233 15.24 14.4034 14.8878 14.8453 14.6508C14.9804 14.5783 15.3148 14.7837 15.5067 14.9294C16.052 15.3432 16.5807 15.7805 17.0956 16.2317C17.3377 16.4437 17.6382 16.6743 17.7307 16.9561C18.036 17.8862 18.6962 18.4947 19.4311 19.0583C19.4845 19.0992 19.5829 19.13 19.5896 19.1757C19.71 20.0048 20.4399 20.3576 20.9228 20.9027C21.0261 21.0193 21.0902 21.1713 21.1965 21.2843C21.9411 22.0755 21.9432 22.0736 22.1098 22.9236C22.2283 22.8536 22.3232 22.7733 22.4325 22.7383C22.6194 22.6785 22.8154 22.6471 23.0076 22.6038C22.9983 22.8124 23.0317 23.0358 22.9663 23.2252C22.9125 23.3812 22.7281 23.4873 22.6258 23.6326C22.4803 23.8392 22.3572 24.0616 22.2245 24.2773C22.4894 24.3457 22.7523 24.453 23.0202 24.4675C23.1706 24.4757 23.3432 24.3496 23.4809 24.2498C23.6648 24.1166 23.8245 23.9501 23.9946 23.7979C24.0065 24.0166 23.9891 24.2426 24.0412 24.4512C24.0727 24.5776 24.1918 24.7097 24.3075 24.7805C24.4564 24.8715 24.7399 24.856 24.7943 24.9689C25.1046 25.6124 25.576 26.0286 26.1728 26.4396C26.7836 26.8603 27.1743 27.5982 27.6696 28.1903C27.7987 28.3447 28.0557 28.4538 28.0886 28.6171C28.3726 30.0241 30.0631 30.1695 30.5585 31.3918C30.6211 31.5462 30.9627 31.6222 31.1886 31.668C31.5863 31.7486 31.6196 31.9366 31.4174 32.2341C31.2238 32.5192 31.0227 32.7992 30.825 33.0815C30.8784 33.1474 30.9318 33.2133 30.9852 33.2793C31.3177 33.1066 31.6502 32.9338 32.1496 32.6745C32.4905 33.3709 32.956 34.0646 33.1652 34.8286C33.3408 35.4697 33.6845 35.6187 34.2141 35.5998C34.7014 35.5825 34.9 35.782 34.9378 36.2599C34.9657 36.6137 35.0371 36.982 35.1772 37.3058C35.7155 38.5508 35.6083 39.8578 35.5911 41.1555C35.5861 41.5401 35.6718 42.1035 35.1306 42.1104C34.878 42.1137 34.6192 41.6339 34.3632 41.373C34.4629 41.3383 34.5625 41.3035 34.6621 41.2687C34.7225 41.0928 34.8862 40.8323 34.8241 40.7564C34.6247 40.5126 34.326 40.1486 34.0942 40.1682C33.1495 40.2481 33.1154 40.1759 32.6043 39.3808C32.1963 38.7461 31.9471 37.8764 30.9511 37.7485C30.7575 37.7236 30.5476 37.2728 30.4765 36.986C30.3861 36.6206 30.3743 36.2619 29.8417 36.2053C29.7882 36.1957 29.7822 36.1904 29.7822 36.1904Z" fill="white"/>
<path d="M29.7914 36.1985C29.7651 36.2642 29.7358 36.3273 29.7065 36.3903C29.6884 36.3781 29.6704 36.3658 29.6523 36.3535C29.6824 36.3094 29.7125 36.2654 29.7625 36.2058C29.7824 36.1904 29.7884 36.1957 29.7914 36.1985Z" fill="white"/>
<path d="M28.4056 11.1153C26.6557 9.96731 24.9255 8.87618 23.2493 7.70777C22.6688 7.30315 22.2103 6.7092 21.4274 6.71768C21.0693 6.72156 20.6605 6.71943 20.3654 6.88337C19.7995 7.19777 19.3169 7.65844 18.7649 8.00234C18.2962 8.29432 17.7714 8.4947 17.2847 8.75993C16.976 8.92812 16.6336 9.08968 16.4088 9.34459C15.9796 9.83135 15.5077 10.1491 14.8462 10.0826C14.5538 11.1644 13.5187 11.385 12.7734 11.9108C12.0981 12.3872 11.3022 12.6913 10.6209 13.1607C9.05702 14.2382 7.56369 15.4202 5.97943 16.4654C4.47326 17.4591 2.88794 18.3328 1.24219 19.1826C1.36163 18.9457 1.56995 18.7113 1.57694 18.4711C1.58481 18.2006 1.37244 17.9315 1.32332 17.65C1.09078 16.3175 1.56188 15.1141 2.52051 14.3209C2.98397 13.9374 3.46771 13.3464 4.27605 13.2585C4.76177 13.2056 5.17169 12.5735 5.64241 12.2394C6.4613 11.6581 7.30792 11.116 8.12963 10.5386C8.82469 10.0502 9.49867 9.53191 10.1872 9.03407C10.3493 8.91688 10.5206 8.78501 10.7078 8.73447C11.8659 8.4218 12.7186 7.67535 13.5077 6.82538C13.6428 6.67981 13.8069 6.50778 13.9857 6.46475C15.124 6.19081 15.8776 5.32966 16.787 4.70147C17.7399 4.04324 18.7376 3.44807 19.7352 2.85835C19.8933 2.76486 20.1543 2.84526 20.3636 2.84526C20.5378 2.01785 20.5442 2.00413 21.2988 2.33289C21.6862 2.50168 22.0636 2.70457 22.4194 2.93295C23.8325 3.84023 25.2232 4.78281 26.6453 5.67565C28.062 6.56515 29.5181 7.39188 30.933 8.2842C31.5576 8.67811 32.1047 9.19305 32.7193 9.60487C33.6083 10.2006 34.5325 10.7434 35.4296 11.3274C35.7975 11.5669 36.1332 11.8557 36.4848 12.1203C36.6804 12.2675 36.8684 12.4282 37.0774 12.5534C37.9549 13.0787 38.8435 13.5856 39.7162 14.1186C39.8551 14.2034 39.9436 14.3809 40.0365 14.5276C40.1193 14.6583 40.1423 14.8423 40.249 14.94C41.5357 16.1182 41.1191 17.6013 40.9603 19.0192C40.9107 19.4622 40.5672 19.3354 40.2944 19.1449C38.8833 18.1597 37.484 17.1568 36.056 16.1968C33.5289 14.4978 30.984 12.8253 28.4056 11.1153Z" fill="white"/>
<path d="M11.3725 42.0221C11.3288 42.2319 11.281 42.3841 11.2652 42.5396C11.1616 43.5533 11.1663 43.5875 10.1228 43.6608C9.09346 43.7332 8.0586 43.7433 7.02611 43.7445C6.75384 43.7448 6.48142 43.6112 6.20906 43.539C6.2956 43.2845 6.38215 43.0299 6.49859 42.6873C5.76596 42.3353 5.89361 41.5982 5.89282 40.9078C5.88969 38.1659 5.89107 35.424 5.89098 32.6821C5.89087 29.0902 5.87136 25.4982 5.90937 21.9067C5.91605 21.276 6.14299 20.6419 6.31538 20.0225C6.35948 19.864 6.56433 19.7191 6.72916 19.6319C7.08492 19.4438 7.45606 19.2796 7.83355 19.1397C8.10082 19.0407 8.38882 18.9977 8.66756 18.9297C8.68158 19.1971 8.6956 19.4644 8.71055 19.7494C9.99982 19.9217 11.3882 21.2814 11.4624 22.7296C11.5424 24.2928 11.4377 25.8652 11.4239 27.4336C11.4172 28.196 11.438 28.9585 11.4392 29.721C11.4419 31.5598 11.4413 33.3986 11.4403 35.2374C11.4392 37.144 11.4383 39.0506 11.4315 40.9572C11.4303 41.2936 11.4 41.6298 11.3725 42.0221Z" fill="white"/>
<path d="M30.8964 17.7476C30.9658 17.4879 30.9742 17.1939 31.1213 17.0815C31.2303 16.9982 31.5447 17.106 31.7242 17.2063C32.4039 17.5861 33.0821 17.9731 33.7297 18.4043C34.3304 18.8042 34.906 19.2458 35.4651 19.7027C35.9594 20.1066 36.1083 20.592 36.0702 21.2916C35.9714 23.1053 36.0778 24.929 36.0426 26.7476C36.0171 28.0674 35.9096 29.3864 35.8017 30.7027C35.7876 30.8749 35.5807 31.0922 35.4102 31.1653C35.3232 31.2026 35.103 30.982 34.9703 30.8504C34.4878 30.3721 34.0031 29.8946 33.5463 29.3921C33.2442 29.0598 32.9832 28.6893 32.7143 28.3281C32.5827 28.1513 32.5179 27.894 32.3502 27.7796C30.9115 26.7981 30.5329 25.3844 30.587 23.7433C30.6321 22.3739 30.5644 21.0008 30.6075 19.6312C30.6268 19.0155 30.7945 18.4044 30.8964 17.7476Z" fill="white"/>
<path d="M22.8491 14.1587C23.2208 14.3022 23.2654 14.5202 22.9504 14.6829C22.6988 14.813 22.388 14.8285 22.1035 14.8948C22.2103 14.6857 22.293 14.4581 22.4343 14.2757C22.5006 14.1902 22.6797 14.192 22.8491 14.1587Z" fill="white"/>
<path d="M18.9759 14.5449C19.0484 14.4611 19.0911 14.3755 19.141 14.3711C19.4605 14.3426 19.7816 14.3319 20.1022 14.3154C20.0615 14.5948 20.0954 15.0636 19.965 15.1149C19.6778 15.2278 19.3053 15.1456 18.975 15.095C18.941 15.0898 18.9568 14.76 18.9759 14.5449Z" fill="white"/>
<path d="M23.4217 12.4814C22.992 12.5477 22.5944 12.6236 22.2021 12.6022C21.6289 12.571 21.7746 12.0716 21.7274 11.7279C21.6741 11.3387 21.6768 10.934 22.1954 10.8509C22.4567 10.809 22.7279 10.8235 22.9947 10.8222C23.4736 10.8198 23.6986 11.0469 23.6162 11.5356C23.5649 11.8399 23.5096 12.1436 23.4217 12.4814Z" fill="white"/>
</g>
<path d="M58.1 42.65C57.4333 43.55 56.5833 44.25 55.55 44.75C54.5167 45.2167 53.4167 45.45 52.25 45.45C50.3833 45.45 48.8 45 47.5 44.1C46.2333 43.2 45.2667 42 44.6 40.5C43.9667 39 43.65 37.35 43.65 35.55C43.65 33.6833 44 32.0167 44.7 30.55C45.4 29.05 46.4 27.8667 47.7 27C49.0333 26.1333 50.5833 25.7 52.35 25.7C53.8167 25.7 55.05 25.9667 56.05 26.5C57.0833 27.0333 57.9 27.6667 58.5 28.4C58.7667 27.6333 59.2 27.0833 59.8 26.75C60.4333 26.3833 61.1833 26.2 62.05 26.2H62.3C62.6667 26.2 62.85 26.4 62.85 26.8V44.45C62.85 44.8167 62.6667 45 62.3 45H58.6C58.2667 45 58.1 44.8167 58.1 44.45V42.65ZM53.3 40.95C53.9333 40.95 54.6167 40.8167 55.35 40.55C56.1167 40.25 56.7667 39.7167 57.3 38.95C57.8333 38.1833 58.1 37.05 58.1 35.55C58.1 34.05 57.8333 32.9333 57.3 32.2C56.7667 31.4333 56.1333 30.9333 55.4 30.7C54.6667 30.4333 53.9833 30.3 53.35 30.3C52.6833 30.3 51.9667 30.45 51.2 30.75C50.4667 31.05 49.8333 31.5833 49.3 32.35C48.8 33.1167 48.55 34.1833 48.55 35.55C48.55 36.9833 48.8167 38.1 49.35 38.9C49.9167 39.6667 50.5667 40.2 51.3 40.5C52.0333 40.8 52.7 40.95 53.3 40.95ZM67.0945 21.3C67.0945 20.5 67.3445 19.85 67.8445 19.35C68.3779 18.8167 69.0279 18.55 69.7945 18.55C70.5612 18.55 71.1945 18.8167 71.6945 19.35C72.2279 19.85 72.4945 20.5 72.4945 21.3C72.4945 22.0667 72.2279 22.7167 71.6945 23.25C71.1945 23.7833 70.5612 24.05 69.7945 24.05C69.0279 24.05 68.3779 23.7833 67.8445 23.25C67.3445 22.7167 67.0945 22.0667 67.0945 21.3ZM67.9445 45C67.6112 45 67.4445 44.8167 67.4445 44.45V26.8C67.4445 26.4 67.6112 26.2 67.9445 26.2H68.1945C69.4612 26.2 70.4445 26.5333 71.1445 27.2C71.8445 27.8667 72.1945 28.95 72.1945 30.45V44.45C72.1945 44.8167 72.0112 45 71.6445 45H67.9445ZM81.5172 28.95C82.0839 27.8833 82.7672 27.1667 83.5672 26.8C84.3672 26.4 85.4505 26.2 86.8172 26.2H87.3672C87.7005 26.2 87.8672 26.4 87.8672 26.8V30.2C87.8672 30.6 87.7005 30.8 87.3672 30.8H86.0672C84.2339 30.8 83.0339 31.2667 82.4672 32.2C81.9339 33.1 81.6672 34.4333 81.6672 36.2V44.45C81.6672 44.8167 81.5005 45 81.1672 45H77.4172C77.1172 45 76.9672 44.8167 76.9672 44.45V26.8C76.9672 26.4 77.1172 26.2 77.4172 26.2H77.6672C79.8339 26.2 81.1172 27.1167 81.5172 28.95ZM91.0203 21.3C91.0203 20.5 91.2703 19.85 91.7703 19.35C92.3036 18.8167 92.9536 18.55 93.7203 18.55C94.487 18.55 95.1203 18.8167 95.6203 19.35C96.1536 19.85 96.4203 20.5 96.4203 21.3C96.4203 22.0667 96.1536 22.7167 95.6203 23.25C95.1203 23.7833 94.487 24.05 93.7203 24.05C92.9536 24.05 92.3036 23.7833 91.7703 23.25C91.2703 22.7167 91.0203 22.0667 91.0203 21.3ZM91.8703 45C91.537 45 91.3703 44.8167 91.3703 44.45V26.8C91.3703 26.4 91.537 26.2 91.8703 26.2H92.1203C93.387 26.2 94.3703 26.5333 95.0703 27.2C95.7703 27.8667 96.1203 28.95 96.1203 30.45V44.45C96.1203 44.8167 95.937 45 95.5703 45H91.8703ZM105.343 28.55C105.943 27.75 106.676 27.1 107.543 26.6C108.443 26.1 109.51 25.85 110.743 25.85C113.676 25.85 115.76 26.95 116.993 29.15C117.66 28.25 118.493 27.4833 119.493 26.85C120.493 26.1833 121.693 25.85 123.093 25.85C125.46 25.85 127.31 26.55 128.643 27.95C130.01 29.35 130.693 31.4333 130.693 34.2V44.45C130.693 44.8167 130.493 45 130.093 45H126.393C126.06 45 125.893 44.8167 125.893 44.45V34.75C125.893 33.0833 125.526 31.9 124.793 31.2C124.093 30.5 123.193 30.15 122.093 30.15C120.993 30.15 120.06 30.5167 119.293 31.25C118.56 31.9833 118.193 33.1667 118.193 34.8V44.45C118.193 44.8167 118.026 45 117.693 45H113.943C113.576 45 113.393 44.8167 113.393 44.45V34.75C113.393 33.0833 113.043 31.9 112.343 31.2C111.643 30.5 110.726 30.15 109.593 30.15C108.46 30.15 107.526 30.5167 106.793 31.25C106.06 31.9833 105.693 33.1667 105.693 34.8V44.45C105.693 44.8167 105.51 45 105.143 45H101.343C101.043 45 100.893 44.8167 100.893 44.45V26.8C100.893 26.4 101.043 26.2 101.343 26.2H101.593C102.56 26.2 103.36 26.4 103.993 26.8C104.66 27.1667 105.11 27.75 105.343 28.55Z" fill="white"/>
<defs>
<clipPath id="clip0_351_2865">
<rect width="42" height="45" fill="white"/>
</clipPath>
</defs>
</svg>
