<svg width="601" height="217" viewBox="0 0 601 217" fill="none" xmlns="http://www.w3.org/2000/svg">
<g clip-path="url(#clip0_538_2182)">
<path d="M116.514 153.188C101.619 137.163 86.8147 121.367 72.1511 105.441C65.187 97.8772 58.525 90.0347 51.6497 82.3877C49.9205 80.4644 49.9873 79.076 52.1597 77.6683C58.2472 73.7237 64.3109 69.7418 70.3708 65.7545C72.3711 64.4383 73.913 64.9147 75.4772 66.6246C85.4129 77.4853 95.437 88.2648 105.369 99.1288C118.297 113.269 131.122 127.504 144.077 141.619C151.764 149.994 159.627 158.205 167.39 166.51C169.904 169.199 172.467 171.856 174.77 174.72C175.647 175.812 176.288 177.439 176.304 178.83C176.422 189.243 176.413 199.659 176.282 210.072C176.265 211.431 175.331 212.778 174.822 214.131C173.459 213.472 171.75 213.139 170.785 212.106C157.558 197.95 144.422 183.709 131.292 169.462C126.378 164.131 121.537 158.733 116.514 153.188ZM143.779 174.636C146.083 174.863 146.14 176.593 146.575 178.355C146.916 179.738 147.926 181.912 148.857 182.032C153.648 182.648 154.846 186.843 156.808 189.903C159.266 193.737 159.43 194.085 163.974 193.7C165.089 193.605 166.526 195.361 167.485 196.537C167.783 196.902 166.996 198.159 166.706 199.007C166.226 199.175 165.747 199.342 165.268 199.51C166.499 200.768 167.744 203.081 168.959 203.066C171.562 203.032 171.149 200.316 171.174 198.461C171.256 192.203 171.772 185.9 169.183 179.897C168.509 178.335 168.166 176.559 168.031 174.853C167.85 172.549 166.895 171.587 164.551 171.67C162.003 171.761 160.351 171.043 159.506 167.951C158.5 164.267 156.261 160.922 154.621 157.564C152.22 158.814 150.62 159.647 149.021 160.48C148.764 160.162 148.507 159.844 148.251 159.526C149.202 158.165 150.169 156.815 151.1 155.44C152.072 154.005 151.912 153.099 150 152.71C148.913 152.49 147.27 152.123 146.969 151.378C144.586 145.484 136.456 144.783 135.09 137.998C134.932 137.211 133.696 136.684 133.075 135.94C130.693 133.085 128.813 129.526 125.876 127.498C123.006 125.516 120.738 123.509 119.246 120.406C118.984 119.861 117.621 119.936 116.905 119.497C116.348 119.156 115.776 118.519 115.624 117.909C115.373 116.903 115.457 115.813 115.4 114.759C114.582 115.493 113.814 116.296 112.929 116.938C112.267 117.419 111.437 118.027 110.714 117.988C109.425 117.918 108.161 117.401 106.886 117.07C107.525 116.03 108.117 114.958 108.817 113.962C109.308 113.261 110.195 112.749 110.454 111.997C110.769 111.084 110.608 110.007 110.653 109C109.729 109.209 108.786 109.361 107.887 109.649C107.361 109.818 106.905 110.205 106.335 110.543C105.533 106.444 105.524 106.453 101.943 102.638C101.431 102.093 101.123 101.36 100.626 100.798C98.3033 98.1687 94.7929 96.4676 94.2139 92.4696C94.1819 92.249 93.7082 92.1007 93.4518 91.9035C89.9172 89.1856 86.742 86.2512 85.2734 81.766C84.8285 80.4073 83.3832 79.2953 82.2191 78.2728C79.7424 76.0972 77.1996 73.9882 74.5773 71.9927C73.6543 71.2904 72.0457 70.3001 71.3963 70.6493C69.2709 71.7921 67.4428 73.4909 65.1845 75.2174C67.1295 75.6277 68.7465 75.9687 70.3634 76.3098C70.3409 76.6457 70.3185 76.9816 70.296 77.3176C69.2204 77.4426 68.1433 77.5549 67.0697 77.6951C64.6196 78.015 62.1382 78.198 59.734 78.7297C58.1391 79.0824 57.1824 80.1059 57.7045 82.1076C59.3611 88.4589 64.2671 91.3143 70.5326 89.4776C71.0465 89.3269 71.6566 89.5059 72.3209 89.5362C68.6573 98.2138 70.9403 102.492 79.7241 103.187C79.1753 106.67 80.4733 109.017 84.2733 109.384C84.4626 109.403 84.7894 109.608 84.7909 109.729C84.8299 113.006 86.9212 114.57 89.2552 116.526C90.4835 117.555 91.1762 119.564 93.1167 120.297C93.7487 120.536 94.2904 121.232 94.6871 121.841C96.0628 123.952 97.2658 126.181 98.7045 128.246C100.486 130.803 103.005 133 104.182 135.787C105.957 139.988 108.851 141.624 113.067 142.068C113.884 142.154 115.126 143.596 115.197 144.491C115.598 149.487 116.349 150.683 121.012 151.506C123.463 151.938 124.722 153.046 125.357 155.528C126.736 160.925 127.215 161.162 132.888 161.631C133.299 161.665 133.698 161.831 133.241 161.713C134.474 164.206 135.657 166.006 136.265 167.984C136.971 170.283 137.943 171.76 140.539 172.161C141.535 172.315 142.342 173.696 143.043 174.667C142.899 174.88 142.754 175.092 142.61 175.305C142.696 175.364 142.783 175.423 142.87 175.482C143.011 175.178 143.152 174.874 143.779 174.636Z" fill="white"/>
<path d="M40.6926 73.6485C28.8175 81.5535 17.1379 89.329 4.8693 97.4966C4.5997 95.8012 4.30975 94.809 4.30536 93.8155C4.27656 87.309 4.36343 80.8017 4.29541 74.2959C4.26865 71.7364 5.33657 70.0646 7.44172 68.6924C23.9423 57.9364 40.4317 47.1625 56.8654 36.3042C70.2292 27.4742 83.5726 18.6099 96.788 9.55978C100.232 7.20106 102.836 7.19137 106.365 9.56568C126.926 23.3997 147.65 36.9905 168.321 50.66C177.345 56.6277 186.334 62.6501 195.427 68.5115C198.088 70.2271 199.233 72.3319 199.151 75.4945C198.999 81.3465 199.13 87.2055 199.11 93.0615C199.106 94.2223 198.949 95.3826 198.797 97.4177C195.479 95.3772 192.651 93.7493 189.935 91.9519C161.418 73.0785 132.91 54.1901 104.431 35.2586C102.46 33.9483 100.895 33.8495 98.8464 35.2118C79.5618 48.0334 60.2162 60.7628 40.6926 73.6485ZM136.814 53.7276C149.018 61.8462 161.258 69.9114 173.412 78.1041C180.28 82.7337 187.01 87.5697 193.797 92.3207C195.109 93.2392 196.761 93.8507 197 91.7144C197.763 84.8772 199.767 77.7253 193.579 72.0439C193.065 71.5724 192.954 70.6854 192.556 70.0551C192.11 69.3479 191.684 68.4917 191.016 68.0827C186.819 65.5123 182.545 63.0681 178.325 60.5349C177.319 59.9314 176.415 59.1562 175.474 58.4464C173.783 57.1704 172.169 55.778 170.399 54.6232C166.085 51.8071 161.64 49.1891 157.364 46.3165C154.408 44.3307 151.777 41.8475 148.773 39.948C141.968 35.645 134.965 31.6583 128.151 27.369C121.311 23.0635 114.623 18.5182 107.826 14.1431C106.116 13.0418 104.3 12.0634 102.437 11.2495C98.8077 9.66413 98.7768 9.7303 97.939 13.7202C96.9323 13.7202 95.6773 13.3325 94.9167 13.7834C90.1186 16.6271 85.3202 19.4972 80.7374 22.6713C76.3638 25.7006 72.7391 29.8532 67.2645 31.1742C66.4044 31.3817 65.6152 32.2113 64.9653 32.9133C61.1702 37.012 57.0691 40.6116 51.4991 42.1193C50.5988 42.363 49.775 42.9989 48.9955 43.564C45.684 45.9647 42.4424 48.4641 39.0995 50.8194C35.1475 53.6038 31.0757 56.2179 27.1372 59.0209C24.8732 60.6321 22.9017 63.6803 20.5656 63.9352C16.6779 64.3592 14.3514 67.2088 12.1223 69.0582C7.51177 72.8835 5.24601 78.6862 6.3644 85.1121C6.60065 86.4695 7.62206 87.767 7.58419 89.0717C7.55057 90.23 6.54868 91.36 5.9742 92.5025C13.8895 88.4048 21.5141 84.1916 28.7581 79.3998C36.3776 74.3596 43.5598 68.6595 51.0814 63.4636C54.3579 61.2002 58.186 59.7335 61.4339 57.4363C65.0183 54.901 69.9965 53.8368 71.4028 48.6203C74.5843 48.9408 76.8543 47.4087 78.9186 45.0614C79.9997 43.8322 81.6465 43.0531 83.131 42.2421C85.4718 40.9631 87.9957 39.9968 90.25 38.5888C92.9052 36.9305 95.2262 34.709 97.9478 33.1929C99.3669 32.4023 101.333 32.4126 103.056 32.3939C106.821 32.353 109.026 35.2172 111.818 37.1683C119.88 42.8027 128.201 48.0643 136.814 53.7276Z" fill="white"/>
<path d="M26.3919 139.385C26.3906 126.158 26.5462 113.253 26.2985 100.356C26.2175 96.141 27.5167 93.3591 31.206 91.4139C33.7812 90.0562 36.1726 88.342 38.6159 86.7408C40.2519 85.6687 41.5503 85.8904 42.8828 87.3525C45.8507 90.6089 48.8688 93.824 51.9727 96.9498C55.3193 100.32 57.04 104.034 57.0423 109.052C57.0565 141.242 57.3692 173.431 57.5781 205.62C57.5873 207.029 57.5638 208.439 57.5149 209.847C57.4477 211.781 56.4774 212.91 54.4967 212.915C46.1713 212.936 37.8457 212.937 29.5204 212.913C27.3644 212.906 26.3993 211.636 26.4244 209.575C26.5381 200.259 26.7236 190.944 26.7898 181.628C26.8582 171.985 26.8635 162.34 26.8066 152.697C26.781 148.367 26.5369 144.039 26.3919 139.385ZM54.7443 202.37C54.8254 200.748 54.971 199.126 54.9768 197.504C55.0098 188.31 55.0138 179.116 55.019 169.922C55.0241 161.055 55.0269 152.188 55.0138 143.321C55.0083 139.644 54.908 135.967 54.9404 132.291C55.0068 124.727 55.5103 117.145 55.1254 109.607C54.7687 102.623 48.0912 96.0665 41.8904 95.2355C41.8186 93.8614 41.7511 92.5721 41.6837 91.2827C40.3431 91.6107 38.9579 91.8181 37.6725 92.2956C35.8569 92.97 34.0719 93.7621 32.3609 94.6691C31.5681 95.0893 30.5829 95.7883 30.3708 96.5523C29.5417 99.5393 28.4502 102.597 28.4181 105.639C28.2353 122.957 28.3291 140.279 28.3297 157.6C28.3301 170.822 28.3235 184.044 28.3385 197.266C28.3423 200.595 27.7284 204.15 31.252 205.847C30.6919 207.499 30.2757 208.727 29.8595 209.955C31.1694 210.302 32.4796 210.947 33.7891 210.945C38.7549 210.94 43.732 210.891 48.6828 210.542C53.7014 210.188 53.679 210.023 54.1769 205.135C54.2533 204.385 54.4831 203.651 54.7443 202.37Z" fill="white"/>
<path d="M176.389 99.165C176.39 119.712 176.39 139.952 176.39 160.193C176.062 160.38 175.735 160.567 175.407 160.754C173.801 159.169 172.127 157.645 170.6 155.986C163.636 148.424 156.806 140.735 149.726 133.284C147.092 130.512 145.75 127.633 145.788 123.751C145.931 109 145.831 94.2465 145.894 79.4945C145.899 78.2871 146.454 77.082 146.754 75.8758C147.889 76.3643 149.128 76.6953 150.143 77.3663C157.731 82.381 165.234 87.5246 172.854 92.4877C175.261 94.0559 176.713 95.8935 176.389 99.165ZM148.59 85.791C148.107 88.7478 147.301 91.6945 147.208 94.6636C147.001 101.268 147.326 107.89 147.109 114.493C146.849 122.407 148.67 129.224 155.59 133.957C156.396 134.509 156.708 135.749 157.341 136.602C158.634 138.344 159.889 140.13 161.342 141.733C163.539 144.156 165.87 146.459 168.191 148.765C168.829 149.4 169.888 150.464 170.307 150.284C171.127 149.931 172.122 148.883 172.19 148.053C172.708 141.705 173.225 135.345 173.348 128.981C173.517 120.211 173.006 111.416 173.481 102.67C173.664 99.297 172.948 96.956 170.571 95.0085C167.882 92.8053 165.113 90.6757 162.224 88.7472C159.11 86.668 155.848 84.8017 152.579 82.9702C151.716 82.4865 150.203 81.9668 149.679 82.3686C148.972 82.9107 148.931 84.3282 148.59 85.791Z" fill="white"/>
<path d="M173.133 17.6489C175.023 17.7076 176.284 18.5529 176.288 20.5606C176.301 27.7997 176.252 35.0389 176.201 42.2778C176.199 42.5607 175.931 42.8417 175.625 43.4381C174.881 43.1108 174.087 42.8912 173.436 42.4564C165.182 36.9411 156.877 31.4972 148.779 25.7603C147.354 24.7513 146.818 22.4824 146.037 20.3749C147.458 19.4272 148.68 18.5774 149.976 18.4421C152.426 18.1862 154.921 18.3998 157.393 18.3126C162.641 18.1273 167.886 17.8742 173.133 17.6489Z" fill="white"/>
<path d="M31.0752 19.5738C34.5703 23.2462 38.0549 26.9287 41.5654 30.5862C43.0974 32.1823 43.1206 33.6391 41.1877 34.849C37.534 37.136 33.8413 39.3602 29.7811 41.5092C27.053 35 27.3727 28.4144 28.3544 21.8522C28.4855 20.9761 30.131 20.3277 31.0752 19.5738Z" fill="white"/>
<path d="M98.4001 62.584C96.049 62.566 93.6977 62.5633 91.347 62.5253C89.2834 62.492 88.1121 61.4253 88.1412 59.3459C88.1814 56.464 88.3619 53.5841 88.8215 50.5468C91.5234 50.5756 93.9417 50.5186 96.2267 51.044C97.4554 51.3264 99.3823 52.5967 99.3926 53.441C99.4298 56.4841 98.7864 59.5356 98.4001 62.584Z" fill="white"/>
<path d="M107.174 65.1971C115.403 65.1373 116.603 66.5728 115.256 74.5149C115.22 74.7276 115.257 74.989 115.146 75.1474C112.661 78.6909 109.046 76.2777 105.986 76.7165C105.362 76.806 104.047 75.0866 103.792 74.0224C103.399 72.3838 103.743 70.5829 103.601 68.8653C103.398 66.4 104.416 65.1841 107.174 65.1971ZM109.691 68.2557C109.075 68.4379 108.214 68.4292 107.895 68.8419C107.215 69.721 106.817 70.819 106.304 71.8273C107.673 71.5073 109.167 71.4324 110.377 70.8054C111.892 70.0205 111.678 68.9694 109.691 68.2557Z" fill="white"/>
<path d="M88.0755 69.8279C87.814 66.2835 89.4181 65.1733 92.5229 65.1365C100.299 65.0444 102.004 67.0558 100.297 74.8057C100.166 75.4012 99.7725 76.4102 99.4676 76.4229C96.2746 76.5567 92.9848 76.9472 89.9304 76.2909C88.9849 76.0877 88.6613 72.9187 88.086 71.0971C87.9929 70.8024 88.0728 70.4527 88.0755 69.8279ZM91.1365 70.3116C91.1717 71.1757 91.0959 72.7661 91.2594 72.7912C92.848 73.0353 94.6392 73.4317 96.0208 72.8871C96.6477 72.6401 96.4851 70.3793 96.6806 69.032C95.1388 69.1117 93.5945 69.1631 92.0578 69.3004C91.8177 69.3218 91.6124 69.7342 91.1365 70.3116Z" fill="white"/>
<path d="M103.886 51.0553C107.045 50.6998 110.012 50.5341 112.98 50.3744C113.082 50.3689 113.204 50.3979 113.29 50.4534C116.848 52.7609 114.952 56.3136 115.204 59.3309C115.374 61.3735 114.019 62.462 111.955 62.5302C101.982 62.8597 102.979 62.6093 103.027 54.3518C103.033 53.3153 103.461 52.2812 103.886 51.0553ZM112.812 60.0243C113.069 58.5587 113.335 57.0946 113.582 55.6272C113.978 53.2703 112.896 52.1754 110.593 52.1868C109.31 52.1931 108.005 52.1233 106.748 52.3252C104.254 52.7258 104.241 54.6775 104.498 56.5543C104.724 58.2118 104.024 60.6202 106.78 60.7706C108.667 60.8736 110.58 60.5075 112.812 60.0243Z" fill="white"/>
<path d="M30.9558 19.3857C30.1318 20.3275 28.4863 20.9759 28.3552 21.8521C27.3735 28.4143 27.0538 34.9999 29.5708 41.5835C28.6866 42.8016 27.2713 43.7127 27.1629 41.3621C26.7903 33.2842 26.7009 25.193 26.5392 17.1061C26.5318 16.7393 26.871 16.3654 27.415 15.2313C28.7469 16.7758 29.7912 17.9867 30.9558 19.3857Z" fill="white"/>
<path d="M172.828 17.6474C167.886 17.8753 162.64 18.1285 157.392 18.3137C154.92 18.401 152.425 18.1873 149.975 18.4432C148.679 18.5786 147.457 19.4283 146.029 20.1165C146.144 17.7432 148.021 17.6524 149.921 17.6497C157.455 17.6392 164.989 17.645 172.828 17.6474Z" fill="white"/>
<path d="M98.6258 62.4843C98.788 59.5352 99.4314 56.4836 99.3942 53.4405C99.3839 52.5962 97.4571 51.326 96.2283 51.0435C93.9433 50.5181 91.5251 50.5751 88.9043 50.2912C91.4419 50.1976 94.2376 50.2048 97.0332 50.207C99.2833 50.2088 100.575 51.3419 100.356 53.5855C100.066 56.5444 101.733 59.8716 98.6258 62.4843Z" fill="white"/>
<path d="M143.235 174.519C142.341 173.697 141.534 172.316 140.538 172.162C137.942 171.761 136.971 170.284 136.264 167.985C135.656 166.007 134.473 164.207 133.24 161.714C133.698 161.833 133.298 161.666 132.887 161.632C127.214 161.163 126.735 160.926 125.356 155.529C124.722 153.047 123.463 151.94 121.011 151.507C116.348 150.684 115.598 149.488 115.197 144.492C115.125 143.597 113.884 142.155 113.067 142.069C108.85 141.626 105.957 139.99 104.182 135.788C103.004 133.001 100.485 130.804 98.7038 128.247C97.2651 126.182 96.0621 123.953 94.6864 121.842C94.2897 121.233 93.748 120.537 93.116 120.298C91.1755 119.565 90.4828 117.557 89.2545 116.527C86.9205 114.571 84.8292 113.007 84.7902 109.73C84.7887 109.609 84.4619 109.404 84.2726 109.385C80.4726 109.018 79.1746 106.672 79.7234 103.188C70.9396 102.493 68.6566 98.2149 72.3202 89.5373C71.6559 89.507 71.0458 89.328 70.5319 89.4787C64.2664 91.3154 59.3604 88.46 57.7038 82.1087C57.1817 80.107 58.1384 79.0835 59.7333 78.7308C62.1375 78.1991 64.6189 78.0161 67.069 77.6962C68.1426 77.556 69.2197 77.4437 70.2953 77.3187C70.3178 76.9828 70.3402 76.6468 70.3627 76.3109C68.7458 75.9698 67.1288 75.6288 65.1838 75.2185C67.4421 73.492 69.2702 71.7933 71.3956 70.6504C72.045 70.3012 73.6536 71.2915 74.5766 71.9938C77.1989 73.9893 79.7417 76.0983 82.2184 78.2739C83.3825 79.2964 84.8278 80.4084 85.2727 81.7671C86.7413 86.2524 89.9165 89.1867 93.4511 91.9046C93.7075 92.1018 94.1812 92.2501 94.2132 92.4707C94.7922 96.4687 98.3026 98.1698 100.625 100.799C101.122 101.361 101.43 102.094 101.942 102.639C105.523 106.454 105.533 106.445 106.334 110.544C106.904 110.206 107.36 109.819 107.886 109.65C108.785 109.362 109.728 109.21 110.652 109.001C110.607 110.008 110.768 111.085 110.454 111.998C110.195 112.75 109.308 113.262 108.816 113.963C108.116 114.959 107.524 116.032 106.886 117.072C108.16 117.402 109.424 117.919 110.713 117.989C111.436 118.028 112.266 117.421 112.929 116.939C113.813 116.297 114.581 115.494 115.399 114.76C115.456 115.814 115.373 116.904 115.623 117.91C115.775 118.52 116.348 119.157 116.904 119.498C117.62 119.937 118.984 119.863 119.246 120.407C120.738 123.51 123.005 125.517 125.875 127.499C128.813 129.527 130.692 133.086 133.074 135.941C133.695 136.685 134.931 137.212 135.09 137.999C136.455 144.784 144.586 145.485 146.968 151.379C147.269 152.124 148.913 152.491 149.999 152.711C151.911 153.1 152.072 154.007 151.099 155.441C150.168 156.816 149.201 158.166 148.25 159.527C148.507 159.845 148.764 160.163 149.021 160.481C150.62 159.648 152.219 158.815 154.621 157.565C156.26 160.923 158.499 164.268 159.506 167.952C160.35 171.044 162.003 171.763 164.55 171.672C166.894 171.588 167.849 172.55 168.031 174.855C168.165 176.561 168.508 178.337 169.182 179.898C171.771 185.902 171.256 192.204 171.173 198.462C171.149 200.317 171.561 203.033 168.958 203.067C167.743 203.083 166.499 200.769 165.267 199.511C165.747 199.344 166.226 199.176 166.705 199.008C166.995 198.16 167.782 196.904 167.484 196.538C166.525 195.362 165.088 193.606 163.973 193.701C159.43 194.086 159.266 193.738 156.808 189.904C154.845 186.844 153.647 182.65 148.856 182.033C147.925 181.913 146.916 179.739 146.574 178.356C146.139 176.594 146.083 174.864 143.521 174.591C143.264 174.545 143.235 174.519 143.235 174.519Z" fill="white"/>
<path d="M143.278 174.558C143.152 174.875 143.011 175.179 142.87 175.484C142.783 175.424 142.696 175.365 142.609 175.306C142.754 175.093 142.899 174.881 143.139 174.594C143.235 174.519 143.264 174.545 143.278 174.558Z" fill="white"/>
<path d="M136.618 53.6008C128.201 48.0652 119.88 42.8035 111.818 37.1692C109.026 35.218 106.821 32.3539 103.056 32.3948C101.333 32.4135 99.3673 32.4032 97.9482 33.1937C95.2267 34.7098 92.9056 36.9313 90.2504 38.5897C87.9961 39.9976 85.4722 40.9639 83.1314 42.2429C81.6469 43.054 80.0001 43.833 78.919 45.0623C76.8547 47.4095 74.5847 48.9417 71.4032 48.6212C69.9969 53.8376 65.0188 54.9018 61.4343 57.4371C58.1864 59.7343 54.3583 61.2011 51.0818 63.4644C43.5602 68.6604 36.378 74.3605 28.7585 79.4007C21.5145 84.1924 13.8899 88.4056 5.97461 92.5034C6.54909 91.3609 7.55098 90.2308 7.5846 89.0726C7.62247 87.7678 6.60106 86.4704 6.36481 85.113C5.24643 78.687 7.51218 72.8843 12.1227 69.0591C14.3518 67.2097 16.6783 64.3601 20.5661 63.936C22.9021 63.6812 24.8736 60.6329 27.1376 59.0217C31.0761 56.2188 35.1479 53.6046 39.0999 50.8202C42.4428 48.465 45.6844 45.9656 48.9959 43.5649C49.7754 42.9998 50.5992 42.3639 51.4995 42.1202C57.0695 40.6124 61.1706 37.0129 64.9657 32.9141C65.6156 32.2121 66.4048 31.3826 67.2649 31.175C72.7395 29.854 76.3642 25.7014 80.7378 22.6721C85.3206 19.498 90.119 16.628 94.9171 13.7842C95.6777 13.3334 96.9327 13.7211 97.9394 13.7211C98.7772 9.73115 98.8081 9.66498 102.437 11.2503C104.3 12.0643 106.116 13.0427 107.827 14.1439C114.623 18.5191 121.312 23.0644 128.151 27.3699C134.965 31.6592 141.968 35.6459 148.773 39.9489C151.777 41.8484 154.409 44.3315 157.365 46.3174C161.64 49.1899 166.085 51.8079 170.4 54.624C172.169 55.7788 173.784 57.1712 175.475 58.4473C176.415 59.157 177.32 59.9323 178.325 60.5358C182.545 63.0689 186.819 65.5132 191.016 68.0836C191.684 68.4925 192.11 69.3487 192.557 70.056C192.955 70.6862 193.065 71.5733 193.579 72.0447C199.767 77.7261 197.763 84.878 197 91.7152C196.761 93.8515 195.109 93.2401 193.797 92.3215C187.011 87.5706 180.281 82.7346 173.412 78.1049C161.258 69.9122 149.019 61.847 136.618 53.6008Z" fill="white"/>
<path d="M54.6922 202.641C54.4822 203.652 54.2524 204.386 54.176 205.136C53.6781 210.024 53.7005 210.189 48.6818 210.543C43.7311 210.892 38.7539 210.941 33.7882 210.946C32.4787 210.948 31.1684 210.303 29.8585 209.956C30.2748 208.728 30.691 207.5 31.251 205.848C27.7274 204.151 28.3414 200.596 28.3376 197.267C28.3225 184.045 28.3291 170.823 28.3287 157.601C28.3282 140.28 28.2344 122.958 28.4172 105.64C28.4493 102.598 29.5408 99.5403 30.3699 96.5533C30.582 95.7893 31.5672 95.0903 32.36 94.6701C34.071 93.7631 35.856 92.971 37.6716 92.2966C38.957 91.8191 40.3421 91.6117 41.6827 91.2838C41.7502 92.5731 41.8176 93.8624 41.8895 95.2365C48.0903 96.0675 54.7677 102.624 55.1244 109.608C55.5094 117.146 55.0059 124.728 54.9394 132.292C54.9071 135.968 55.0074 139.645 55.0128 143.322C55.0259 152.189 55.0231 161.056 55.0181 169.923C55.0129 179.117 55.0089 188.311 54.9759 197.505C54.9701 199.127 54.8244 200.749 54.6922 202.641Z" fill="white"/>
<path d="M148.596 85.5817C148.93 84.3293 148.97 82.9118 149.678 82.3697C150.202 81.9679 151.714 82.4876 152.577 82.9713C155.846 84.8028 159.108 86.6692 162.223 88.7483C165.112 90.6768 167.88 92.8064 170.569 95.0097C172.946 96.9571 173.663 99.2981 173.479 102.672C173.004 111.418 173.516 120.212 173.347 128.982C173.224 135.346 172.707 141.706 172.188 148.054C172.12 148.884 171.125 149.933 170.305 150.285C169.887 150.465 168.828 149.401 168.19 148.767C165.869 146.46 163.538 144.157 161.341 141.734C159.888 140.132 158.632 138.345 157.339 136.603C156.706 135.751 156.395 134.51 155.588 133.958C148.669 129.225 146.848 122.408 147.108 114.494C147.325 107.891 146.999 101.269 147.206 94.6648C147.299 91.6956 148.106 88.749 148.596 85.5817Z" fill="white"/>
<path d="M109.889 68.2769C111.677 68.9689 111.891 70.0201 110.376 70.8049C109.166 71.432 107.671 71.5068 106.303 71.8268C106.816 70.8185 107.214 69.7206 107.894 68.8414C108.213 68.4287 109.074 68.4375 109.889 68.2769Z" fill="white"/>
<path d="M91.2643 70.1377C91.613 69.7332 91.8183 69.3208 92.0584 69.2994C93.5951 69.1621 95.1394 69.1107 96.6812 69.031C96.4856 70.3783 96.6483 72.6391 96.0214 72.8861C94.6398 73.4307 92.8486 73.0342 91.2599 72.7902C91.0965 72.7651 91.1723 71.1747 91.2643 70.1377Z" fill="white"/>
<path d="M112.647 60.188C110.58 60.5078 108.668 60.8738 106.781 60.7708C104.024 60.6204 104.725 58.212 104.498 56.5545C104.242 54.6777 104.255 52.726 106.749 52.3254C108.006 52.1235 109.31 52.1933 110.593 52.187C112.896 52.1756 113.979 53.2706 113.582 55.6274C113.335 57.0948 113.069 58.559 112.647 60.188Z" fill="white"/>
</g>
<path d="M266.4 204.6C263.733 208.2 260.333 211 256.2 213C252.067 214.867 247.667 215.8 243 215.8C235.533 215.8 229.2 214 224 210.4C218.933 206.8 215.067 202 212.4 196C209.867 190 208.6 183.4 208.6 176.2C208.6 168.733 210 162.067 212.8 156.2C215.6 150.2 219.6 145.467 224.8 142C230.133 138.533 236.333 136.8 243.4 136.8C249.267 136.8 254.2 137.867 258.2 140C262.333 142.133 265.6 144.667 268 147.6C269.067 144.533 270.8 142.333 273.2 141C275.733 139.533 278.733 138.8 282.2 138.8H283.2C284.667 138.8 285.4 139.6 285.4 141.2V211.8C285.4 213.267 284.667 214 283.2 214H268.4C267.067 214 266.4 213.267 266.4 211.8V204.6ZM247.2 197.8C249.733 197.8 252.467 197.267 255.4 196.2C258.467 195 261.067 192.867 263.2 189.8C265.333 186.733 266.4 182.2 266.4 176.2C266.4 170.2 265.333 165.733 263.2 162.8C261.067 159.733 258.533 157.733 255.6 156.8C252.667 155.733 249.933 155.2 247.4 155.2C244.733 155.2 241.867 155.8 238.8 157C235.867 158.2 233.333 160.333 231.2 163.4C229.2 166.467 228.2 170.733 228.2 176.2C228.2 181.933 229.267 186.4 231.4 189.6C233.667 192.667 236.267 194.8 239.2 196C242.133 197.2 244.8 197.8 247.2 197.8ZM302.378 119.2C302.378 116 303.378 113.4 305.378 111.4C307.511 109.267 310.111 108.2 313.178 108.2C316.245 108.2 318.778 109.267 320.778 111.4C322.911 113.4 323.978 116 323.978 119.2C323.978 122.267 322.911 124.867 320.778 127C318.778 129.133 316.245 130.2 313.178 130.2C310.111 130.2 307.511 129.133 305.378 127C303.378 124.867 302.378 122.267 302.378 119.2ZM305.778 214C304.445 214 303.778 213.267 303.778 211.8V141.2C303.778 139.6 304.445 138.8 305.778 138.8H306.778C311.845 138.8 315.778 140.133 318.578 142.8C321.378 145.467 322.778 149.8 322.778 155.8V211.8C322.778 213.267 322.045 214 320.578 214H305.778ZM360.069 149.8C362.335 145.533 365.069 142.667 368.269 141.2C371.469 139.6 375.802 138.8 381.269 138.8H383.469C384.802 138.8 385.469 139.6 385.469 141.2V154.8C385.469 156.4 384.802 157.2 383.469 157.2H378.269C370.935 157.2 366.135 159.067 363.869 162.8C361.735 166.4 360.669 171.733 360.669 178.8V211.8C360.669 213.267 360.002 214 358.669 214H343.669C342.469 214 341.869 213.267 341.869 211.8V141.2C341.869 139.6 342.469 138.8 343.669 138.8H344.669C353.335 138.8 358.469 142.467 360.069 149.8ZM398.081 119.2C398.081 116 399.081 113.4 401.081 111.4C403.215 109.267 405.815 108.2 408.881 108.2C411.948 108.2 414.481 109.267 416.481 111.4C418.615 113.4 419.681 116 419.681 119.2C419.681 122.267 418.615 124.867 416.481 127C414.481 129.133 411.948 130.2 408.881 130.2C405.815 130.2 403.215 129.133 401.081 127C399.081 124.867 398.081 122.267 398.081 119.2ZM401.481 214C400.148 214 399.481 213.267 399.481 211.8V141.2C399.481 139.6 400.148 138.8 401.481 138.8H402.481C407.548 138.8 411.481 140.133 414.281 142.8C417.081 145.467 418.481 149.8 418.481 155.8V211.8C418.481 213.267 417.748 214 416.281 214H401.481ZM455.372 148.2C457.772 145 460.705 142.4 464.172 140.4C467.772 138.4 472.039 137.4 476.972 137.4C488.705 137.4 497.039 141.8 501.972 150.6C504.639 147 507.972 143.933 511.972 141.4C515.972 138.733 520.772 137.4 526.372 137.4C535.839 137.4 543.239 140.2 548.572 145.8C554.039 151.4 556.772 159.733 556.772 170.8V211.8C556.772 213.267 555.972 214 554.372 214H539.572C538.239 214 537.572 213.267 537.572 211.8V173C537.572 166.333 536.105 161.6 533.172 158.8C530.372 156 526.772 154.6 522.372 154.6C517.972 154.6 514.239 156.067 511.172 159C508.239 161.933 506.772 166.667 506.772 173.2V211.8C506.772 213.267 506.105 214 504.772 214H489.772C488.305 214 487.572 213.267 487.572 211.8V173C487.572 166.333 486.172 161.6 483.372 158.8C480.572 156 476.905 154.6 472.372 154.6C467.839 154.6 464.105 156.067 461.172 159C458.239 161.933 456.772 166.667 456.772 173.2V211.8C456.772 213.267 456.039 214 454.572 214H439.372C438.172 214 437.572 213.267 437.572 211.8V141.2C437.572 139.6 438.172 138.8 439.372 138.8H440.372C444.239 138.8 447.439 139.6 449.972 141.2C452.639 142.667 454.439 145 455.372 148.2Z" fill="white"/>
<defs>
<clipPath id="clip0_538_2182">
<rect width="202" height="217" fill="white"/>
</clipPath>
</defs>
</svg>
